<?xml version="1.0" encoding="utf-8" standalone="yes"?>
<!DOCTYPE svg PUBLIC "-//W3C//DTD SVG 1.1//EN" "http://www.w3.org/Graphics/SVG/1.1/DTD/svg11.dtd">
<svg width="674" height="446" viewBox="0 0 674 446" style="fill:none;stroke:none;fill-rule:evenodd;clip-rule:evenodd;stroke-linecap:round;stroke-linejoin:round;stroke-miterlimit:1.5;" version="1.1" xmlns="http://www.w3.org/2000/svg" xmlns:xlink="http://www.w3.org/1999/xlink"><style class="text-font-style fontImports" data-font-family="Roboto">@import url('https://fonts.googleapis.com/css2?family=Roboto:wght@400;700&amp;display=block');</style><rect id="" x="0" y="0" width="674" height="446" style="fill: #ffffff;"></rect><g id="items" style="isolation: isolate"><g id="blend" style="mix-blend-mode: normal"><g id="g-root-tf_4l22laf12i9u-fill" data-item-order="-298368" transform="translate(-9, -9)"><g id="tf_4l22laf12i9u-fill" stroke="none" fill="#ffffff"><g><path d="M 10 10L 682 10L 682 454L 10 454Z"></path></g></g></g><g id="g-root-0.cu-plate_sy_1q7l8rif0oglo-fill" data-item-order="-93779" transform="translate(17.201004028320312, 163.635986328125)"><g id="0.cu-plate_sy_1q7l8rif0oglo-fill" stroke="none" fill="#f5f5f5"><g><path d="M 629.597 96.843998L 11.6701 9.999998L 10 21.883998L 627.927 108.727998L 629.597 96.843998Z"></path></g></g></g><g id="g-root-0.cu-triangle_sy_1q7l8rif0oglp-fill" data-item-order="-93777" transform="translate(279.6169128417969, 220.2362060546875)"><g id="0.cu-triangle_sy_1q7l8rif0oglp-fill" stroke="none" fill="#f5f5f5"><g><path d="M 56.489087 10.552763C 56.857087 9.815763 57.909087 9.815763 58.277087 10.552763L 104.659087 103.316763C 104.992087 103.981763 104.508087 104.763763 103.765087 104.763763L 11.001087 104.763763C 10.258087 104.763763 9.774087 103.981763 10.107087 103.316763L 56.489087 10.552763Z"></path></g></g></g><g id="g-root-bill_zjf9umf0vhft-fill" data-item-order="0" transform="translate(15, 39)"></g><g id="g-root-tx__3d57if12j9e-fill" data-item-order="0" transform="translate(75, 51)"><g id="tx__3d57if12j9e-fill" stroke="none" fill="#484848"><g><text style="font: 20px Roboto, sans-serif; white-space: pre;" font-size="20px" font-family="Roboto, sans-serif"><tspan x="12" y="33.5" dominant-baseline="ideographic">高初期投資</tspan></text></g></g></g><g id="g-root-pers_1lrrqn2f0ohdy-fill" data-item-order="0" transform="translate(15, 111)"></g><g id="g-root-tx__8z05gef12hou-fill" data-item-order="0" transform="translate(75, 111)"><g id="tx__8z05gef12hou-fill" stroke="none" fill="#484848"><g><text style="font: 20px Roboto, sans-serif; white-space: pre;" font-size="20px" font-family="Roboto, sans-serif"><tspan x="12" y="33.5" dominant-baseline="ideographic">物理ハードウェ</tspan><tspan x="12" y="57.5" dominant-baseline="ideographic">ア管理</tspan></text></g></g></g><g id="g-root-1_v7cm8uf0zocl-fill" data-item-order="0" transform="translate(435, 99)"></g><g id="g-root-tx__1hdtnryf12i9u-fill" data-item-order="0" transform="translate(495, 99)"><g id="tx__1hdtnryf12i9u-fill" stroke="none" fill="#484848"><g><text style="font: 20px Roboto, sans-serif; white-space: pre;" font-size="20px" font-family="Roboto, sans-serif"><tspan x="12" y="33.5" dominant-baseline="ideographic">従量課金制モデ</tspan><tspan x="12" y="57.5" dominant-baseline="ideographic">ル</tspan></text></g></g></g><g id="g-root-arro_18f2a3if0y9s1-fill" data-item-order="0" transform="translate(435, 171)"></g><g id="g-root-tx__1ltn5wef12hhi-fill" data-item-order="0" transform="translate(495, 171)"><g id="tx__1ltn5wef12hhi-fill" stroke="none" fill="#484848"><g><text style="font: 20px Roboto, sans-serif; white-space: pre;" font-size="20px" font-family="Roboto, sans-serif"><tspan x="12" y="33.5" dominant-baseline="ideographic">オンデマンドリ</tspan><tspan x="12" y="57.5" dominant-baseline="ideographic">ソース</tspan></text></g></g></g><g id="g-root-tx__142d5emf12juu-fill" data-item-order="0" transform="translate(15, 279)"><g id="tx__142d5emf12juu-fill" stroke="none" fill="#484848"><g><text style="font: 20px Roboto, sans-serif; white-space: pre;" font-size="20px" font-family="Roboto, sans-serif"><tspan x="12.6" y="33.5" dominant-baseline="ideographic">オンプレミスインフラ</tspan></text></g></g></g><g id="g-root-tx__zn64daf12hhe-fill" data-item-order="0" transform="translate(453, 279)"><g id="tx__zn64daf12hhe-fill" stroke="none" fill="#484848"><g><text style="font: 20px Roboto, sans-serif; white-space: pre;" font-size="20px" font-family="Roboto, sans-serif"><tspan x="14" y="33.5" dominant-baseline="ideographic">クラウドインフラ</tspan></text></g></g></g><g id="g-root-tx__mbplzyf12j2e-fill" data-item-order="0" transform="translate(111, 363)"><g id="tx__mbplzyf12j2e-fill" stroke="none" fill="#484848"><g><text style="font: 20px Roboto, sans-serif; white-space: pre;" font-size="20px" font-family="Roboto, sans-serif"><tspan x="16.5" y="33.5" dominant-baseline="ideographic">インフラストラクチャの調調達とコストの比較</tspan></text></g></g></g><g id="g-root-tf_4l22laf12i9u-stroke" data-item-order="-298368" transform="translate(-9, -9)"></g><g id="g-root-0.cu-plate_sy_1q7l8rif0oglo-stroke" data-item-order="-93779" transform="translate(17.201004028320312, 163.635986328125)"><g id="0.cu-plate_sy_1q7l8rif0oglo-stroke" fill="none" stroke-linecap="round" stroke-linejoin="round" stroke-miterlimit="4" stroke="#969696" stroke-width="2"><g><path d="M 629.597 96.843998L 11.6701 9.999998L 10 21.883998L 627.927 108.727998L 629.597 96.843998Z"></path></g></g></g><g id="g-root-0.cu-triangle_sy_1q7l8rif0oglp-stroke" data-item-order="-93777" transform="translate(279.6169128417969, 220.2362060546875)"><g id="0.cu-triangle_sy_1q7l8rif0oglp-stroke" fill="none" stroke-linecap="round" stroke-linejoin="round" stroke-miterlimit="4" stroke="#969696" stroke-width="2"><g><path d="M 56.489087 10.552763C 56.857087 9.815763 57.909087 9.815763 58.277087 10.552763L 104.659087 103.316763C 104.992087 103.981763 104.508087 104.763763 103.765087 104.763763L 11.001087 104.763763C 10.258087 104.763763 9.774087 103.981763 10.107087 103.316763L 56.489087 10.552763Z"></path></g></g></g><g id="g-root-bill_zjf9umf0vhft-stroke" data-item-order="0" transform="translate(15, 39)"><g id="bill_zjf9umf0vhft-stroke" fill="none" stroke-linecap="round" stroke-linejoin="round" stroke-miterlimit="4" stroke="#484848" stroke-width="2"><g><path d="M 15.5 35L 21.5 35C 21.770302 34.982117 22.035179 35.081718 22.22673 35.27327C 22.418282 35.464821 22.517881 35.729698 22.5 36L 22.5 54C 22.517881 54.270302 22.418282 54.535179 22.22673 54.72673C 22.035179 54.918282 21.770302 55.017883 21.5 55L 15.5 55M 30.76 32.34L 27 37C 26.514385 37.613148 25.781887 37.979397 25 38L 22.5 38M 22.5 50C 26.5 53 30.639999 55 33 55L 47.5 55C 48.959999 55 49.860001 54.900002 50.5 53C 51.45385 48.378887 52.121784 43.703346 52.5 39C 52.5 38 51.5 37 49.5 37L 33.5 37M 31 34L 28.18 14.139999C 28.131264 13.853913 28.211832 13.560938 28.4 13.34C 28.594934 13.125782 28.870373 13.00256 29.159998 13L 43 13M 36 37L 34.120003 18.1C 34.085308 17.814165 34.180744 17.527853 34.379997 17.32C 34.572258 17.116238 34.839855 17.000519 35.119999 17L 51.34 17C 51.629623 17.00256 51.90506 17.125782 52.099998 17.34C 52.28817 17.560938 52.368736 17.853912 52.32 18.139999L 49.5 37M 40.720001 27.5C 40.720001 28.880713 41.839287 30 43.220001 30C 44.600712 30 45.720001 28.880713 45.720001 27.5C 45.720001 26.119287 44.600712 25 43.220001 25C 41.839287 25 40.720001 26.119287 40.720001 27.5"></path></g></g></g><g id="g-root-tx__3d57if12j9e-stroke" data-item-order="0" transform="translate(75, 51)"></g><g id="g-root-pers_1lrrqn2f0ohdy-stroke" data-item-order="0" transform="translate(15, 111)"><g id="pers_1lrrqn2f0ohdy-stroke" fill="none" stroke-linecap="round" stroke-linejoin="round" stroke-miterlimit="4" stroke="#484848" stroke-width="2"><g><path d="M 24.25008 29.349979L 24.25008 23.349979M 13.24988 35.150002L 35.25 35.150002M 37.049999 56.349998C 35.25 51.150002 30.25 47.349998 24.45002 47.349998C 18.650021 47.349998 13.45002 51.150002 11.650024 56.349998M 16.049881 37.349998C 16.24988 41.75 19.84988 45.349998 24.24988 45.349998C 28.84988 45.349998 32.449799 41.75 32.449799 37.150002L 32.449799 33.549999C 32.449799 28.94998 28.84988 25.349979 24.24988 25.349979C 19.84988 25.349979 16.24988 28.94998 16.049881 33.349998L 16.049881 37.349998ZM 44.349998 23.650021C 50.977402 23.650021 56.349998 20.963741 56.349998 17.650021C 56.349998 14.33632 50.977402 11.650024 44.349998 11.650024C 37.722603 11.650024 32.349998 14.33632 32.349998 17.650021C 32.349998 20.963741 37.722603 23.650021 44.349998 23.650021ZM 39.950001 32.25C 41.349998 32.450001 42.75 32.650002 44.349998 32.650002C 50.950001 32.650002 56.349998 30.049999 56.349998 26.650021L 56.349998 17.650021M 32.349998 17.650021L 32.349998 22.05002M 39.950001 41.25C 41.349998 41.450001 42.75 41.650002 44.349998 41.650002C 50.950001 41.650002 56.349998 39.049999 56.349998 35.650002L 56.349998 26.650021"></path></g></g></g><g id="g-root-tx__8z05gef12hou-stroke" data-item-order="0" transform="translate(75, 111)"></g><g id="g-root-1_v7cm8uf0zocl-stroke" data-item-order="0" transform="translate(435, 99)"><g id="1_v7cm8uf0zocl-stroke" fill="none" stroke-linecap="round" stroke-linejoin="round" stroke-miterlimit="4" stroke="#484848" stroke-width="2"><g><path d="M 28.062 39.938C 24.162493 43.839989 17.837507 43.839989 13.938 39.938L 12 38L 30 38ZM 54.062 39.938C 50.162495 43.839989 43.837509 43.839989 39.938 39.938L 38 38L 56 38ZM 21 42.863998C 20.938053 45.282139 22.520025 47.43586 24.846001 48.099998L 28.464001 49.133999M 47 42.863998C 47.062191 45.281578 45.481178 47.435108 43.155998 48.099998L 39.538002 49.133999M 16.5 16.498001C 16.5 18.98328 18.514719 20.998001 21 20.998001C 23.485281 20.998001 25.5 18.98328 25.5 16.498001C 25.5 14.012718 23.485281 11.998 21 11.998C 18.514719 11.998 16.5 14.012718 16.5 16.498001ZM 21 23C 15 23 15 27.686001 15 31L 15 31L 18 31L 19 38L 23 38L 24 31L 27 31L 27 31C 27 27.681999 27 23 21 23ZM 42.158001 54.481998L 42.186001 54.534C 42.349358 54.844166 42.338375 55.217224 42.157055 55.517242C 41.975735 55.817261 41.650555 56.000427 41.299999 56L 26.700001 56C 26.348854 56.000797 26.02302 55.81736 25.841576 55.516727C 25.66013 55.216091 25.649662 54.842316 25.813999 54.532001L 25.841999 54.48L 29.452 47.119999C 29.789072 46.433994 30.487659 46.000095 31.252001 46.001999L 36.760002 46.001999C 37.524338 46.000095 38.222927 46.433994 38.559998 47.119999ZM 52 18L 48.599998 18C 47.448231 17.992489 46.428791 18.743656 46.094772 19.845955C 45.760757 20.948254 46.191784 22.138935 47.153999 22.771999L 50.834 25.226C 51.796238 25.857189 52.229076 27.045841 51.898022 28.147978C 51.566963 29.250114 50.550777 30.00351 49.399998 30L 46 30M 50 18.001999L 50 16.001999M 48 32.001999L 48 30.002001"></path></g></g></g><g id="g-root-tx__1hdtnryf12i9u-stroke" data-item-order="0" transform="translate(495, 99)"></g><g id="g-root-arro_18f2a3if0y9s1-stroke" data-item-order="0" transform="translate(435, 171)"><g id="arro_18f2a3if0y9s1-stroke" fill="none" stroke-linecap="round" stroke-linejoin="round" stroke-miterlimit="4" stroke="#484848" stroke-width="2"><g><path d="M 23.94796 22.671879L 20.273441 22.671879C 15.85516 22.671879 12.273439 26.253599 12.273439 30.671801L 12.273439 41.125C 12.273439 45.543201 15.85516 49.125 20.273441 49.125L 31.763201 49.125M 48.891201 33.711601C 52.620602 33.711601 55.7286 30.4484 55.7286 26.718941C 55.7286 22.9895 52.620602 19.88162 48.891201 19.88162C 47.492599 19.88162 46.0942 20.347801 45.006401 21.124779C 44.074001 16.307579 39.878403 12.57812 34.750401 12.57812C 29.000799 12.57812 24.183601 17.239941 24.183601 23.144901C 24.183601 29.04986 28.8454 33.711601 34.750401 33.711601L 48.891201 33.711601ZM 10 10M 41.109398 49.125L 55.726601 49.125M 10 10M 26.144541 42.828201L 32.4394 49.119202L 26.144541 55.4142M 10 10M 46.6954 55.421799L 40.399002 49.129398L 46.6954 42.833"></path></g></g></g><g id="g-root-tx__1ltn5wef12hhi-stroke" data-item-order="0" transform="translate(495, 171)"></g><g id="g-root-tx__142d5emf12juu-stroke" data-item-order="0" transform="translate(15, 279)"></g><g id="g-root-tx__zn64daf12hhe-stroke" data-item-order="0" transform="translate(453, 279)"></g><g id="g-root-tx__mbplzyf12j2e-stroke" data-item-order="0" transform="translate(111, 363)"></g></g></g></svg>