<?xml version="1.0" encoding="utf-8" standalone="yes"?>
<!DOCTYPE svg PUBLIC "-//W3C//DTD SVG 1.1//EN" "http://www.w3.org/Graphics/SVG/1.1/DTD/svg11.dtd">
<svg width="781" height="536" viewBox="0 0 781 536" style="fill:none;stroke:none;fill-rule:evenodd;clip-rule:evenodd;stroke-linecap:round;stroke-linejoin:round;stroke-miterlimit:1.5;" version="1.1" xmlns="http://www.w3.org/2000/svg" xmlns:xlink="http://www.w3.org/1999/xlink"><style class="text-font-style fontImports" data-font-family="Roboto">@import url('https://fonts.googleapis.com/css2?family=Roboto:wght@400;700&amp;display=block');</style><rect id="" x="0" y="0" width="780.128" height="536" style="fill: #ffffff;"></rect><g id="items" style="isolation: isolate"><g id="blend" style="mix-blend-mode: normal"><g id="g-root-tf_742xagp4avc-fill" data-item-order="-415520" transform="translate(-9, -9)"><g id="tf_742xagp4avc-fill" stroke="none" fill="#ffffff"><g><path d="M 10.003995 10L 788.133995 10L 788.133995 544L 10.003995 544Z"></path></g></g></g><g id="g-root-0.cu_sy_1cvici6gonea1-fill" data-item-order="-147313" transform="translate(19.128005981445312, 115)"><g id="0.cu_sy_1cvici6gonea1-fill" stroke="none" fill="url(#gradient-cbcbcb-248399021)"><g><path d="M 94.251091 283C 94.251091 279.692 94.251091 264.059 90.580691 261C 85.673191 256.91 79.221891 257.967 71.002791 259.313C 66.158191 260.106 60.699491 261 54.580591 261C 40.172391 261 34.916291 252.865 36.580591 242.5C 38.085791 233.126 36.690491 232.097 34.110291 230.193C 33.636791 229.844 33.123391 229.465 32.580691 229C 29.080691 226 27.580691 220 30.580691 216.5C 26.580691 212 24.436891 207.155 27.080691 203C 30.580691 197.5 29.580691 192 23.080691 190.5C 22.626291 190.395 22.143591 190.225 21.506591 190C 20.496691 189.644 19.098891 189.151 16.811291 188.565C 13.080691 187.61 5.871991 179.431 13.080691 169.5C 15.876091 165.649 18.632391 162.27 21.152991 159.18C 27.649591 151.216 32.580691 145.171 32.580691 137.91C 32.580691 135.155 31.861691 133.224 31.033391 131C 29.907991 127.977 28.580691 124.413 28.580691 117.5C 28.580691 58.1294 76.710091 10 136.080991 10C 195.450991 10 243.580991 58.1294 243.580991 117.5C 243.580991 155.855 223.832991 180.246 216.721991 189.028L 216.649991 189.117C 210.103991 197.204 200.649991 208.932 200.649991 225.5L 200.649991 283C 200.649991 287.226 195.049991 301.554 145.665991 301.554C 96.282791 301.554 94.251091 286.308 94.251091 283ZM 135.999991 208C 185.705991 208 225.999991 167.706 225.999991 118C 225.999991 68.2944 185.705991 28 135.999991 28C 86.294491 28 46.000091 68.2944 46.000091 118C 46.000091 167.706 86.294491 208 135.999991 208Z"></path></g></g></g><g id="g-root-4.cu_sy_18foudqgonf2a-fill" data-item-order="-147309" transform="translate(226.83355712890625, 307.14453125)"><g id="4.cu_sy_18foudqgonf2a-fill" stroke="none" fill="url(#gradient-bceb57-497517668)"><g><path d="M 181.35 77.1273C 120.857 74.5989 65.766 51.205 23.0682 13.945L 18.5475 10L 10 19.7949L 14.5207 23.7399C 59.4692 62.964 117.523 87.5722 181.242 90.1339L 181.184 97.0425L 204.294 83.9557L 181.406 70.4853L 181.35 77.1273Z"></path></g></g></g><g id="g-root-3.cu_sy_18foudqgonf2b-fill" data-item-order="-147305" transform="translate(263.78033447265625, 249.083984375)"><g id="3.cu_sy_18foudqgonf2b-fill" stroke="none" fill="url(#gradient-4dd3ff-378786070)"><g><path d="M 144.372 27.3149C 101.2244 26.5205 59.2262 21.0517 18.8597 11.3959L 13.0244 10L 10 22.6433L 15.8354 24.0392C 57.1679 33.9261 100.1641 39.517 144.324 40.3162L 144.298 47.1538L 167.347 33.9606L 144.397 20.5959L 144.372 27.3149Z"></path></g></g></g><g id="g-root-2.cu_sy_zk1u4ugonfv0-fill" data-item-order="-147301" transform="translate(263.78033447265625, 151.76171875)"><g id="2.cu_sy_zk1u4ugonfv0-fill" stroke="none" fill="url(#gradient-64edab-240055791)"><g><path d="M 167.347 23.1932L 144.397 36.5579L 144.372 29.8389C 101.2244 30.6333 59.2262 36.1021 18.8597 45.758L 13.0244 47.1539L 10 34.5106L 15.8354 33.1147C 57.1679 23.2277 100.1641 17.6368 144.324 16.8376L 144.298 10L 167.347 23.1932Z"></path></g></g></g><g id="g-root-1.cu_sy_zk1u4ugonfv1-fill" data-item-order="-147297" transform="translate(226.83355712890625, 43.8134765625)"><defs><linearGradient id="gradient-cbcbcb-248399021" x2="0" y2="1"><stop offset="0" stop-color="#d9d9d9"></stop><stop offset="1" stop-color="#bcbcbc"></stop></linearGradient><linearGradient id="gradient-bceb57-497517668" x2="0" y2="1"><stop offset="0" stop-color="#cff976"></stop><stop offset="1" stop-color="#a8dd38"></stop></linearGradient><linearGradient id="gradient-4dd3ff-378786070" x2="0" y2="1"><stop offset="0" stop-color="#7fdfff"></stop><stop offset="1" stop-color="#1ac6ff"></stop></linearGradient><linearGradient id="gradient-64edab-240055791" x2="0" y2="1"><stop offset="0" stop-color="#83fac1"></stop><stop offset="1" stop-color="#44e095"></stop></linearGradient><linearGradient id="gradient-76aaff-163240667" x2="0" y2="1"><stop offset="0" stop-color="#9cc2ff"></stop><stop offset="1" stop-color="#4f92ff"></stop></linearGradient></defs><g id="1.cu_sy_zk1u4ugonfv1-fill" stroke="none" fill="url(#gradient-76aaff-163240667)"><g><path d="M 204.294 23.0867L 181.406 36.5572L 181.35 29.9151C 120.857 32.4436 65.7661 55.8375 23.0682 93.0975L 18.5475 97.0425L 10 87.2476L 14.5207 83.3026C 59.4692 44.0785 117.523 19.4703 181.242 16.9086L 181.184 10L 204.294 23.0867Z"></path></g></g></g><g id="g-root-mana_magr0ugp1iww-fill" data-item-order="0" transform="translate(433.1279602050781, 39)"></g><g id="g-root-tx__2qrbigone9y-fill" data-item-order="0" transform="translate(481.1279602050781, 45)"><g id="tx__2qrbigone9y-fill" stroke="none" fill="#4e88e7"><g><text style="font: bold 20px Roboto, sans-serif; white-space: pre;" font-weight="bold" font-size="20px" font-family="Roboto, sans-serif"><tspan x="12" y="33.5" dominant-baseline="ideographic">単一障害点の排除</tspan></text></g></g></g><g id="g-root-tx__2qrbigone9x-fill" data-item-order="0" transform="translate(481.1279602050781, 81)"><g id="tx__2qrbigone9x-fill" stroke="none" fill="#484848"><g><text style="font: 20px Roboto, sans-serif; white-space: pre;" font-size="20px" font-family="Roboto, sans-serif"><tspan x="12" y="33.5" dominant-baseline="ideographic">これにより、システムの脆弱</tspan><tspan x="12" y="57.5" dominant-baseline="ideographic">性が減り、稼働時間が向上し</tspan><tspan x="12" y="81.5" dominant-baseline="ideographic">ます。</tspan></text></g></g></g><g id="g-root-fire_1lviocugouham-fill" data-item-order="0" transform="translate(433.1279602050781, 147)"></g><g id="g-root-tx__4hxscugongng-fill" data-item-order="0" transform="translate(481.1279602050781, 153)"><g id="tx__4hxscugongng-fill" stroke="none" fill="#3cc583"><g><text style="font: bold 20px Roboto, sans-serif; white-space: pre;" font-weight="bold" font-size="20px" font-family="Roboto, sans-serif"><tspan x="12" y="33.5" dominant-baseline="ideographic">自動復旧メカニズム</tspan></text></g></g></g><g id="g-root-tx_aws_v48c0egongna-fill" data-item-order="0" transform="translate(73.12799072265625, 171)"><g id="tx_aws_v48c0egongna-fill" stroke="none" fill="#484848"><g><text style="font: bold 20px Roboto, sans-serif; white-space: pre;" font-weight="bold" font-size="20px" font-family="Roboto, sans-serif"><tspan x="20.61" y="33.5" dominant-baseline="ideographic">AWSで高可用</tspan><tspan x="12.4" y="57.5" dominant-baseline="ideographic">性アーキテクチ</tspan><tspan x="12" y="81.5" dominant-baseline="ideographic">ャを設計する方</tspan><tspan x="52" y="105.5" dominant-baseline="ideographic">法は？</tspan></text></g></g></g><g id="g-root-tx__ddkslqgonfur-fill" data-item-order="0" transform="translate(481.1279602050781, 189)"><g id="tx__ddkslqgonfur-fill" stroke="none" fill="#484848"><g><text style="font: 20px Roboto, sans-serif; white-space: pre;" font-size="20px" font-family="Roboto, sans-serif"><tspan x="12" y="33.5" dominant-baseline="ideographic">障害発生時に迅速な回復を保</tspan><tspan x="12" y="57.5" dominant-baseline="ideographic">証し、サービス中断を最小限</tspan><tspan x="12" y="81.5" dominant-baseline="ideographic">に抑えます。</tspan></text></g></g></g><g id="g-root-glob_1uo1b66goq809-fill" data-item-order="0" transform="translate(433.1279602050781, 255)"></g><g id="g-root-tx_az_ddkslqgonfuq-fill" data-item-order="0" transform="translate(481.1279602050781, 261)"><g id="tx_az_ddkslqgonfuq-fill" stroke="none" fill="#1eabda"><g><text style="font: bold 20px Roboto, sans-serif; white-space: pre;" font-weight="bold" font-size="20px" font-family="Roboto, sans-serif"><tspan x="12" y="33.5" dominant-baseline="ideographic">マルチAZ配置</tspan></text></g></g></g><g id="g-root-tx__hteaq6gonf2h-fill" data-item-order="0" transform="translate(481.1279602050781, 297)"><g id="tx__hteaq6gonf2h-fill" stroke="none" fill="#484848"><g><text style="font: 20px Roboto, sans-serif; white-space: pre;" font-size="20px" font-family="Roboto, sans-serif"><tspan x="12" y="33.5" dominant-baseline="ideographic">地理的に分散したリソースを</tspan><tspan x="12" y="57.5" dominant-baseline="ideographic">使用して、災害時の耐障害性</tspan><tspan x="12" y="81.5" dominant-baseline="ideographic">を提供します。</tspan></text></g></g></g><g id="g-root-incr_1q87t1qgonevj-fill" data-item-order="0" transform="translate(433.1279602050781, 363)"></g><g id="g-root-tx_autoscal_hteaq6gonf2g-fill" data-item-order="0" transform="translate(481.1279602050781, 369)"><g id="tx_autoscal_hteaq6gonf2g-fill" stroke="none" fill="#92bd39"><g><text style="font: bold 20px Roboto, sans-serif; white-space: pre;" font-weight="bold" font-size="20px" font-family="Roboto, sans-serif"><tspan x="12" y="33.5" dominant-baseline="ideographic">Auto Scaling</tspan></text></g></g></g><g id="g-root-tx__m97sumgonea7-fill" data-item-order="0" transform="translate(481.1279602050781, 405)"><g id="tx__m97sumgonea7-fill" stroke="none" fill="#484848"><g><text style="font: 20px Roboto, sans-serif; white-space: pre;" font-size="20px" font-family="Roboto, sans-serif"><tspan x="12" y="33.5" dominant-baseline="ideographic">需要に応じてリソースを動的</tspan><tspan x="12" y="57.5" dominant-baseline="ideographic">に調整し、パフォーマンスと</tspan><tspan x="12" y="81.5" dominant-baseline="ideographic">コスト効率を最適化します。</tspan></text></g></g></g><g id="g-root-tf_742xagp4avc-stroke" data-item-order="-415520" transform="translate(-9, -9)"></g><g id="g-root-0.cu_sy_1cvici6gonea1-stroke" data-item-order="-147313" transform="translate(19.128005981445312, 115)"><g id="0.cu_sy_1cvici6gonea1-stroke" fill="none" stroke-linecap="round" stroke-linejoin="round" stroke-miterlimit="4" stroke="#484848" stroke-width="2"><g><path d="M 94.251091 283.0001C 94.251091 279.6921 94.251091 264.0588 90.580691 261.0001C 85.673191 256.9105 79.221891 257.9669 71.002791 259.3128C 66.158191 260.1062 60.699491 261.0001 54.580591 261.0001C 40.172391 261.0001 34.916291 252.8652 36.580591 242.5C 38.085791 233.1262 36.690491 232.0968 34.110291 230.1933C 33.636791 229.8439 33.123391 229.4652 32.580691 229C 29.080691 226 27.580691 220 30.580691 216.5C 26.580691 212 24.436891 207.1545 27.080691 203C 30.580691 197.5 29.580691 192 23.080691 190.5C 22.626291 190.3951 22.143591 190.2249 21.506591 190.0003C 20.496691 189.6442 19.098891 189.1514 16.811191 188.5654C 13.080691 187.6097 5.871991 179.4306 13.080691 169.5C 15.876091 165.6491 18.632391 162.2701 21.152991 159.1801C 27.649591 151.2162 32.580691 145.1712 32.580691 137.9105C 32.580691 135.1548 31.861691 133.224 31.033391 130.9995C 29.907991 127.9771 28.580691 124.4125 28.580691 117.5C 28.580691 58.1294 76.710091 10 136.080691 10C 195.451291 10 243.580691 58.1294 243.580691 117.5C 243.580691 155.8549 223.832691 180.2462 216.722491 189.0282L 216.650291 189.1173C 210.103591 197.2037 200.650291 208.932 200.650291 225.5L 200.650291 283.0001C 200.650291 287.2262 195.049991 301.5538 145.666391 301.5538C 96.282791 301.5538 94.251091 286.308 94.251091 283.0001ZM 136.000091 208C 185.705691 208 226.000091 167.7056 226.000091 118C 226.000091 68.2944 185.705691 28 136.000091 28C 86.294491 28 46.000091 68.2944 46.000091 118C 46.000091 167.7056 86.294491 208 136.000091 208Z"></path></g></g></g><g id="g-root-4.cu_sy_18foudqgonf2a-stroke" data-item-order="-147309" transform="translate(226.83355712890625, 307.14453125)"><g id="4.cu_sy_18foudqgonf2a-stroke" fill="none" stroke-linecap="round" stroke-linejoin="round" stroke-miterlimit="4" stroke="#484848" stroke-width="2"><g><path d="M 181.3503 77.1273C 120.8569 74.5989 65.766 51.205 23.0682 13.945L 18.5475 10L 10 19.7949L 14.5207 23.7399C 59.4692 62.964 117.5227 87.5722 181.2417 90.1339L 181.1841 97.0425L 204.2941 83.9557L 181.4057 70.4853L 181.3503 77.1273Z"></path></g></g></g><g id="g-root-3.cu_sy_18foudqgonf2b-stroke" data-item-order="-147305" transform="translate(263.78033447265625, 249.083984375)"><g id="3.cu_sy_18foudqgonf2b-stroke" fill="none" stroke-linecap="round" stroke-linejoin="round" stroke-miterlimit="4" stroke="#484848" stroke-width="2"><g><path d="M 144.3721 27.3149C 101.2244 26.5205 59.2262 21.0517 18.8597 11.3959L 13.0244 10L 10 22.6433L 15.8354 24.0392C 57.1679 33.9261 100.1641 39.517 144.3236 40.3162L 144.2982 47.1538L 167.3475 33.9606L 144.3971 20.5959L 144.3721 27.3149Z"></path></g></g></g><g id="g-root-2.cu_sy_zk1u4ugonfv0-stroke" data-item-order="-147301" transform="translate(263.78033447265625, 151.76171875)"><g id="2.cu_sy_zk1u4ugonfv0-stroke" fill="none" stroke-linecap="round" stroke-linejoin="round" stroke-miterlimit="4" stroke="#484848" stroke-width="2"><g><path d="M 167.3475 23.1932L 144.3971 36.5579L 144.3721 29.8389C 101.2244 30.6333 59.2262 36.1021 18.8597 45.758L 13.0244 47.1539L 10 34.5106L 15.8354 33.1147C 57.1679 23.2277 100.1641 17.6368 144.3236 16.8376L 144.2982 10L 167.3475 23.1932Z"></path></g></g></g><g id="g-root-1.cu_sy_zk1u4ugonfv1-stroke" data-item-order="-147297" transform="translate(226.83355712890625, 43.8134765625)"><g id="1.cu_sy_zk1u4ugonfv1-stroke" fill="none" stroke-linecap="round" stroke-linejoin="round" stroke-miterlimit="4" stroke="#484848" stroke-width="2"><g><path d="M 204.2941 23.0867L 181.4057 36.5572L 181.3503 29.9151C 120.8569 32.4436 65.7661 55.8375 23.0682 93.0975L 18.5475 97.0425L 10 87.2476L 14.5208 83.3026C 59.4692 44.0785 117.5227 19.4703 181.2417 16.9086L 181.1841 10L 204.2941 23.0867Z"></path></g></g></g><g id="g-root-mana_magr0ugp1iww-stroke" data-item-order="0" transform="translate(433.1279602050781, 39)"><g id="mana_magr0ugp1iww-stroke" fill="none" stroke-linecap="round" stroke-linejoin="round" stroke-miterlimit="4" stroke="#484848" stroke-width="2"><g><path d="M 11.5 28L 14.5 28M 20.5 28L 28 28M 34 28L 44.5 28M 41.4655 25L 44.5 28L 41.4655 31M 14.5 28C 14.5 29.656855 15.843145 31 17.5 31C 19.156855 31 20.5 29.656855 20.5 28C 20.5 26.343145 19.156855 25 17.5 25C 15.843145 25 14.5 26.343145 14.5 28M 28 28C 28 29.656855 29.343145 31 31 31C 32.656853 31 34 29.656855 34 28C 34 26.343145 32.656853 25 31 25C 29.343145 25 28 26.343145 28 28M 31 25L 31 19.75M 17.5 36.25L 17.5 31M 26.5 10.75L 35.5 10.75C 35.5 10.75 37 10.75 37 12.25L 37 18.25C 37 18.25 37 19.75 35.5 19.75L 26.5 19.75C 26.5 19.75 25 19.75 25 18.25L 25 12.25C 25 12.25 25 10.75 26.5 10.75M 13 36.25L 22 36.25C 22 36.25 23.5 36.25 23.5 37.75L 23.5 43.75C 23.5 43.75 23.5 45.25 22 45.25L 13 45.25C 13 45.25 11.5 45.25 11.5 43.75L 11.5 37.75C 11.5 37.75 11.5 36.25 13 36.25"></path></g></g></g><g id="g-root-tx__2qrbigone9y-stroke" data-item-order="0" transform="translate(481.1279602050781, 45)"></g><g id="g-root-tx__2qrbigone9x-stroke" data-item-order="0" transform="translate(481.1279602050781, 81)"></g><g id="g-root-fire_1lviocugouham-stroke" data-item-order="0" transform="translate(433.1279602050781, 147)"><g id="fire_1lviocugouham-stroke" fill="none" stroke-linecap="round" stroke-linejoin="round" stroke-miterlimit="4" stroke="#484848" stroke-width="2"><g><path d="M 17.455 15.859C 17.155598 17.391663 17.392891 18.980675 18.126999 20.358999C 19.329809 19.136978 20.693319 18.08432 22.18 17.23C 21.274633 18.453194 21.274633 20.124306 22.18 21.3475C 23.812809 22.938034 25.715422 24.225571 27.799 25.150002C 27.799 25.150002 26.035 26.950001 25.963001 26.950001C 25.890999 26.950001 21.7495 26.614 20.3605 29.632C 18.9715 32.650002 24.0235 35.737 25.220501 35.931999C 26.4175 36.126999 33.608501 37.320999 34.565502 31C 35.522499 24.679001 31.2775 23.049999 31.2775 23.049999C 31.2775 23.049999 40.504002 23.657499 37.5355 32.690498C 41.751984 29.094934 43.076843 23.141312 40.782997 18.097M 40.782997 18.0865C 46.623989 25.151409 45.628159 35.614464 38.559296 41.450668C 31.490429 47.286869 21.028049 46.283951 15.196639 39.211132C 9.365227 32.138313 10.375234 21.676619 17.452 15.85M 41.913998 23.144499C 40.879036 21.128994 39.613022 19.240791 38.141495 17.518C 35.778999 14.9635 33.385002 12.505 33.193001 10.75C 33.193001 10.75 28.1185 12.634 27.193001 19.943501M 22.460501 21.668499C 24.451326 20.185923 26.979664 19.622107 29.411768 20.11838C 31.843872 20.614653 33.949188 22.123966 35.200001 24.268M 28 25.2265C 26.695286 25.925617 25.171892 26.096912 23.744499 25.704998C 21.158731 24.421423 18.161152 24.2486 15.445 25.2265C 15.445 25.2265 15.907 27.5245 19.276001 27.716499C 19.069269 29.413424 19.571198 31.120522 20.6635 32.435501"></path></g></g></g><g id="g-root-tx__4hxscugongng-stroke" data-item-order="0" transform="translate(481.1279602050781, 153)"></g><g id="g-root-tx_aws_v48c0egongna-stroke" data-item-order="0" transform="translate(73.12799072265625, 171)"></g><g id="g-root-tx__ddkslqgonfur-stroke" data-item-order="0" transform="translate(481.1279602050781, 189)"></g><g id="g-root-glob_1uo1b66goq809-stroke" data-item-order="0" transform="translate(433.1279602050781, 255)"><g id="glob_1uo1b66goq809-stroke" fill="none" stroke-linecap="round" stroke-linejoin="round" stroke-miterlimit="4" stroke="#484848" stroke-width="2"><g><path d="M 14.6005 24.393999C 14.59981 31.851162 20.64484 37.896751 28.102001 37.896751C 35.559162 37.896751 41.604195 31.851162 41.6035 24.394001C 41.604195 16.93684 35.559162 10.891249 28.102001 10.891249C 20.64484 10.891249 14.59981 16.93684 14.6005 24.394001M 28.117001 37.834C 31.9165 35.765499 34.645 30.5965 34.645 24.509501C 34.645 18.130001 32.209 12.73 28.101999 10.912M 28.2295 37.900002C 24.369999 35.8675 21.5875 30.6565 21.5875 24.509501C 21.5875 18.130001 23.994999 12.73 28.101999 10.912M 39.021999 16.441C 36.9715 18.581501 32.854 20.041 28.106501 20.041C 23.359001 20.041 19.2565 18.586 17.200001 16.450001M 41.349998 21.736C 38.4925 24.052 33.631001 25.577499 28.112499 25.577499C 22.616501 25.577499 17.77 24.064001 14.9125 21.763M 41.370998 26.881001C 38.744499 29.382999 33.788502 31.070499 28.106501 31.070499C 22.4245 31.070499 17.5 29.393499 14.8675 26.9035M 37.704998 33.884499C 41.743 34.661499 44.362 35.9095 44.362 37.318001C 44.362 39.673 37.035999 41.5825 28 41.5825C 18.964001 41.5825 11.638 39.673 11.638 37.318001C 11.638 35.9305 14.188 34.697502 18.124001 33.9175M 35.458 45.109001L 21.002501 45.109001L 24.625 37.8955L 31.835501 37.8955L 35.458 45.109001ZM 14.901999 39.868L 14.5435 44.959M 41.443001 39.868L 41.801498 44.959"></path></g></g></g><g id="g-root-tx_az_ddkslqgonfuq-stroke" data-item-order="0" transform="translate(481.1279602050781, 261)"></g><g id="g-root-tx__hteaq6gonf2h-stroke" data-item-order="0" transform="translate(481.1279602050781, 297)"></g><g id="g-root-incr_1q87t1qgonevj-stroke" data-item-order="0" transform="translate(433.1279602050781, 363)"><g id="incr_1q87t1qgonevj-stroke" fill="none" stroke-linecap="round" stroke-linejoin="round" stroke-miterlimit="4" stroke="#484848" stroke-width="2"><g><path d="M 13.188571 26.817142L 42.759998 13.368571M 37.23143 11.285714L 42.759998 13.368571L 40.702854 18.897142M 44.071426 44.740002L 37.642857 44.740002L 37.642857 44.740002L 37.642857 26.74C 37.642857 26.029921 38.218491 25.454287 38.92857 25.454287L 42.785713 25.454287C 43.495792 25.454287 44.071426 26.029921 44.071426 26.74L 44.071426 44.740002L 44.071426 44.740002ZM 31.214285 44.740002L 24.785713 44.740002L 24.785713 44.740002L 24.785713 30.597143C 24.785713 29.887064 25.361349 29.311428 26.071428 29.311428L 29.928572 29.311428C 30.638653 29.311428 31.214285 29.887064 31.214285 30.597143L 31.214285 44.740002L 31.214285 44.740002ZM 18.357143 44.740002L 11.928572 44.740002L 11.928572 44.740002L 11.928572 34.454285C 11.928572 33.744205 12.504207 33.168571 13.214286 33.168571L 17.071428 33.168571C 17.781507 33.168571 18.357143 33.744205 18.357143 34.454285L 18.357143 44.740002L 18.357143 44.740002Z"></path></g></g></g><g id="g-root-tx_autoscal_hteaq6gonf2g-stroke" data-item-order="0" transform="translate(481.1279602050781, 369)"></g><g id="g-root-tx__m97sumgonea7-stroke" data-item-order="0" transform="translate(481.1279602050781, 405)"></g></g></g></svg>