<?xml version="1.0" encoding="utf-8" standalone="yes"?>
<!DOCTYPE svg PUBLIC "-//W3C//DTD SVG 1.1//EN" "http://www.w3.org/Graphics/SVG/1.1/DTD/svg11.dtd">
<svg width="556" height="648" viewBox="0 0 556 648" style="fill:none;stroke:none;fill-rule:evenodd;clip-rule:evenodd;stroke-linecap:round;stroke-linejoin:round;stroke-miterlimit:1.5;" version="1.1" xmlns="http://www.w3.org/2000/svg" xmlns:xlink="http://www.w3.org/1999/xlink"><style class="text-font-style fontImports" data-font-family="Shantell Sans">@import url('https://fonts.googleapis.com/css2?family=Shantell+Sans:wght@300..800&amp;display=block');</style><rect id="" x="0" y="0" width="556" height="648" style="fill: #ffffff;"></rect><g id="items" style="isolation: isolate"><g id="blend" style="mix-blend-mode: normal"><g id="g-root-tf_dfh6lafb6d57-fill" data-item-order="-355488" transform="translate(-8, -8)"><g id="tf_dfh6lafb6d57-fill" stroke="none" fill="#ffffff"><g><path d="M 10 10L 562 10L 562 654L 10 654Z"></path></g></g></g><g id="g-root-1.bubble-1_fr_v6r732fawh6s-fill" data-item-order="-282230" transform="translate(40, 124)"><g id="1.bubble-1_fr_v6r732fawh6s-fill" stroke="none" fill="#ffffff"><g><path d="M 178 22L 10 22C 10.000001 15.3726 15.3726 9.999999 22 10L 166 10.000013C 172.627 10.000013 178 15.3726 178 22ZM 178 214L 178 22L 10 22.00002L 10.000003 214L 178 214ZM 10 214L 178 214L 178 218.0873C 178 222.8876 175.139 227.226 170.727 229.117L 98.727 259.9741C 95.7085 261.2678 92.2916 261.2678 89.273 259.9741L 17.273 229.117C 12.8608 227.226 10 222.8876 10 218.0873L 10 214Z"></path></g></g></g><g id="g-root-3.bubble-3_fr_mb46u6fawhzi-fill" data-item-order="-282202" transform="translate(232, 124)"><g id="3.bubble-3_fr_mb46u6fawhzi-fill" stroke="none" fill="#ffffff"><g><path d="M 178 22L 10 22C 10.000001 15.3726 15.3726 9.999999 22 10L 166 10.000013C 172.627 10.000013 178 15.3726 178 22ZM 178 214L 178 22L 10 22.00002L 10.000003 214L 178 214ZM 10 214L 178 214L 178 218.0873C 178 222.8876 175.139 227.226 170.727 229.117L 98.727 259.9741C 95.7085 261.2678 92.2916 261.2678 89.273 259.9741L 17.273 229.117C 12.8608 227.226 10 222.8876 10 218.0873L 10 214Z"></path></g></g></g><g id="g-root-2.bubble-2_fr_qqxoymfawhz4-fill" data-item-order="-282170" transform="translate(136, 361)"><g id="2.bubble-2_fr_qqxoymfawhz4-fill" stroke="none" fill="#ffffff"><g><path d="M 10.000001 212.999969L 178.000001 212.999998C 178.000001 219.627469 172.627001 224.999969 166.000001 224.999969L 22.000001 224.999969C 15.372601 224.999969 10 219.627369 10.000001 212.999969ZM 178 213L 178 57L 10 57.000015L 10.000003 213L 178 213ZM 178 56.944404L 10 56.944404L 10 52.857104C 10.000001 48.056804 12.8608 43.718304 17.273 41.827404L 89.273 10.970304C 92.2915 9.676604 95.7085 9.676604 98.727 10.970304L 170.727 41.827404C 175.139 43.718304 178 48.056804 178 52.857104L 178 56.944404Z"></path></g></g></g><g id="g-root-4.bubble-4_fr_hvaopqfawiru-fill" data-item-order="-282142" transform="translate(328, 361)"><g id="4.bubble-4_fr_hvaopqfawiru-fill" stroke="none" fill="#ffffff"><g><path d="M 10.000001 213L 178.000001 213.000029C 178.000001 219.6275 172.627001 225 166.000001 225L 22.000001 225C 15.372601 225 10 219.6274 10.000001 213ZM 178 213L 178 57L 10 57.000015L 10.000003 213L 178 213ZM 178 56.944404L 10 56.944404L 10 52.857104C 10.000001 48.056804 12.8608 43.718304 17.273 41.827404L 89.273 10.970304C 92.2915 9.676604 95.7085 9.676604 98.727 10.970304L 170.727 41.827404C 175.139 43.718304 178 48.056804 178 52.857104L 178 56.944404Z"></path></g></g></g><g id="g-root-tx__hvaopqfawirw-fill" data-item-order="0" transform="translate(40, 40)"><g id="tx__hvaopqfawirw-fill" stroke="none" fill="#484848"><g><text style="font: bold 25px &quot;Shantell Sans&quot;, cursive; white-space: pre;" font-weight="bold" font-size="25px" font-family="'Shantell Sans', cursive"><tspan x="14.88" y="44.5" dominant-baseline="ideographic">システムアーキテクチャコンポーネント</tspan></text></g></g></g><g id="g-root-tx__dg3noefawged-fill" data-item-order="0" transform="translate(52, 148)"><g id="tx__dg3noefawged-fill" stroke="none" fill="#484848"><g><text style="font: bold 20px &quot;Shantell Sans&quot;, cursive; white-space: pre;" font-weight="bold" font-size="20px" font-family="'Shantell Sans', cursive"><tspan x="12.4" y="35.5" dominant-baseline="ideographic">スケーラビリテ</tspan><tspan x="72" y="59.5" dominant-baseline="ideographic">ィ</tspan></text></g></g></g><g id="g-root-tx__vbqzryfazc3u-fill" data-item-order="0" transform="translate(244, 136)"><g id="tx__vbqzryfazc3u-fill" stroke="none" fill="#484848"><g><text style="font: bold 20px &quot;Shantell Sans&quot;, cursive; white-space: pre;" font-weight="bold" font-size="20px" font-family="'Shantell Sans', cursive"><tspan x="13.4" y="35.5" dominant-baseline="ideographic">マイクロサービ</tspan><tspan x="72" y="59.5" dominant-baseline="ideographic">ス</tspan></text></g></g></g><g id="g-root-tx__4kgnfifawh72-fill" data-item-order="0" transform="translate(52, 208)"><g id="tx__4kgnfifawh72-fill" stroke="none" fill="#484848"><g><text style="font: 15px &quot;Shantell Sans&quot;, cursive; white-space: pre;" font-size="15px" font-family="'Shantell Sans', cursive"><tspan x="15.32" y="32" dominant-baseline="ideographic">システムを効果的に</tspan><tspan x="14.8" y="50" dominant-baseline="ideographic">スケーリングするた</tspan><tspan x="44.5" y="68" dominant-baseline="ideographic">めの技術。</tspan></text></g></g></g><g id="g-root-tx__vbqzryfazc3v-fill" data-item-order="0" transform="translate(244, 196)"><g id="tx__vbqzryfazc3v-fill" stroke="none" fill="#484848"><g><text style="font: 15px &quot;Shantell Sans&quot;, cursive; white-space: pre;" font-size="15px" font-family="'Shantell Sans', cursive"><tspan x="14.5" y="29" dominant-baseline="ideographic">独立したサービスを</tspan><tspan x="14.8" y="47" dominant-baseline="ideographic">用いてアプリケーシ</tspan><tspan x="14.5" y="65" dominant-baseline="ideographic">ョンを構築するアプ</tspan><tspan x="52.38" y="83" dominant-baseline="ideographic">ローチ。</tspan></text></g></g></g><g id="g-root-1_4kgnfifawh73-fill" data-item-order="0" transform="translate(94, 280)"></g><g id="g-root-1_qwjyqmfaz9qc-fill" data-item-order="0" transform="translate(286, 280)"></g><g id="g-root-shie_1hiuie6fb22v8-fill" data-item-order="0" transform="translate(190, 396)"></g><g id="g-root-gath_1q5qvfifb3itd-fill" data-item-order="0" transform="translate(382, 396)"></g><g id="g-root-tx__mgqgm6fb23nm-fill" data-item-order="0" transform="translate(184, 468)"><g id="tx__mgqgm6fb23nm-fill" stroke="none" fill="#484848"><g><text style="font: bold 20px &quot;Shantell Sans&quot;, cursive; white-space: pre;" font-weight="bold" font-size="20px" font-family="'Shantell Sans', cursive"><tspan x="16" y="35.5" dominant-baseline="ideographic">回復性</tspan></text></g></g></g><g id="g-root-tx_devops_1uo29wefb6d4z-fill" data-item-order="0" transform="translate(352, 468)"><g id="tx_devops_1uo29wefb6d4z-fill" stroke="none" fill="#484848"><g><text style="font: bold 20px &quot;Shantell Sans&quot;, cursive; white-space: pre;" font-weight="bold" font-size="20px" font-family="'Shantell Sans', cursive"><tspan x="12.52" y="35.5" dominant-baseline="ideographic">DevOps文化</tspan></text></g></g></g><g id="g-root-tx__959y8ufb258l-fill" data-item-order="0" transform="translate(148, 504)"><g id="tx__959y8ufb258l-fill" stroke="none" fill="#484848"><g><text style="font: 15px &quot;Shantell Sans&quot;, cursive; white-space: pre;" font-size="15px" font-family="'Shantell Sans', cursive"><tspan x="15.32" y="32" dominant-baseline="ideographic">システムの回復と信</tspan><tspan x="14.5" y="50" dominant-baseline="ideographic">頼性を確保するため</tspan><tspan x="52" y="68" dominant-baseline="ideographic">の方法。</tspan></text></g></g></g><g id="g-root-tx__1uo29wefb6d50-fill" data-item-order="0" transform="translate(340, 504)"><g id="tx__1uo29wefb6d50-fill" stroke="none" fill="#484848"><g><text style="font: 15px &quot;Shantell Sans&quot;, cursive; white-space: pre;" font-size="15px" font-family="'Shantell Sans', cursive"><tspan x="14.5" y="29" dominant-baseline="ideographic">効率のための開発と</tspan><tspan x="37" y="47" dominant-baseline="ideographic">運用の統合。</tspan></text></g></g></g><g id="g-root-tf_dfh6lafb6d57-stroke" data-item-order="-355488" transform="translate(-8, -8)"></g><g id="g-root-1.bubble-1_fr_v6r732fawh6s-stroke" data-item-order="-282230" transform="translate(40, 124)"><g id="1.bubble-1_fr_v6r732fawh6s-stroke" fill="none" stroke-linecap="round" stroke-linejoin="round" stroke-miterlimit="4" stroke="#484848" stroke-width="4"><g><path d="M 178 22C 178.4 15.4 172.6 10.3 166 10C 143.7 9 121.4 11.7 99.2 10C 73.5 8.1 47.7 10.1 22 10C 15.4 10 10.8 15.4 10 22M 178 214C 178.4 190.9 178.3 167.8 178 144.7C 177.7 123.2 179.5 101.7 178 80.3C 176.6 60.9 177.6 41.4 178 22M 10 214C 10.6 193.4 9.1 172.8 10 152.3C 11.1 128.5 11.1 104.7 10 81C 9 61.3 9.9 41.7 10 22M 178 214C 177.9 215.4 177.8 216.7 178 218.1C 178.7 222.8 175.4 228.1 170.7 229.1C 157.7 232 146.1 239.3 134 244.8C 122.4 250.2 110.4 254.6 98.7 260C 95.7 261.3 92 261.8 89.3 260C 78.5 253 66 249.2 53.9 244.8C 41.5 240.3 29.5 234.3 17.3 229.1C 12.9 227.2 11.3 222.7 10 218.1C 9.6 216.8 10.4 215.3 10 214"></path><path d="M 178 22C 178 15.3726 172.6274 10 166 10L 22 10C 15.3726 10 10 15.3726 10 22M 178 213.99968L 178 22M 10 213.99968L 10 22M 178 214L 178 218.0872C 178 222.8876 175.1392 227.226 170.727 229.117L 98.727 259.9741C 95.7085 261.2678 92.2916 261.2678 89.273 259.9741L 17.273 229.117C 12.8608 227.226 10 222.8876 10 218.0872L 10 214"></path></g></g></g><g id="g-root-3.bubble-3_fr_mb46u6fawhzi-stroke" data-item-order="-282202" transform="translate(232, 124)"><g id="3.bubble-3_fr_mb46u6fawhzi-stroke" fill="none" stroke-linecap="round" stroke-linejoin="round" stroke-miterlimit="4" stroke="#484848" stroke-width="4"><g><path d="M 178 22C 178.4 15.4 172.6 10.7 166 10C 141.4 7.5 116.6 10.6 91.9 10C 68.6 9.5 45.3 8.4 22 10C 15.4 10.4 9.8 15.4 10 22M 178 214C 179.1 197.6 177.4 181.1 178 164.6C 178.5 149.5 177.9 134.4 178 119.3C 178.1 104.3 179.5 89.3 178 74.4C 176.2 57.1 177.5 39.5 178 22M 10 214C 10.3 192.9 10.9 171.8 10 150.7C 9.2 131.1 9.5 111.4 10 91.7C 10.6 68.5 9.4 45.2 10 22M 178 214C 178.2 215.4 177.6 216.8 178 218.1C 179.5 222.7 175.4 227.9 170.7 229.1C 145.5 235.7 122.1 248.4 98.7 260C 95.8 261.4 92.5 260.5 89.3 260C 63.4 256.1 41.1 239.8 17.3 229.1C 12.9 227.1 11.5 222.6 10 218.1C 9.6 216.8 10.1 215.4 10 214"></path><path d="M 178 22C 178 15.3726 172.6274 10 166 10L 22 10C 15.3726 10 10 15.3726 10 22M 178 213.99968L 178 22M 10 213.99968L 10 22M 178 214L 178 218.0872C 178 222.8876 175.1392 227.226 170.727 229.117L 98.727 259.9741C 95.7085 261.2678 92.2916 261.2678 89.273 259.9741L 17.273 229.117C 12.8608 227.226 10 222.8876 10 218.0872L 10 214"></path></g></g></g><g id="g-root-2.bubble-2_fr_qqxoymfawhz4-stroke" data-item-order="-282170" transform="translate(136, 361)"><g id="2.bubble-2_fr_qqxoymfawhz4-stroke" fill="none" stroke-linecap="round" stroke-linejoin="round" stroke-miterlimit="4" stroke="#484848" stroke-width="4"><g><path d="M 10 213C 10.8 219.6 15.4 225 22 225C 45 225.1 68.1 223.6 91.1 225C 116 226.5 141.1 223.6 166 225C 172.6 225.4 178.9 219.6 178 213M 178 213C 179.2 185.2 177.8 157.4 178 129.7C 178.2 105.4 176.2 81.2 178 57M 10 213C 10.6 185.1 10.1 157.3 10 129.4C 9.9 105.3 10.3 81.2 10 57M 10 56.9C 9.8 55.6 10.2 54.2 10 52.9C 9.5 48.1 12.9 43.8 17.3 41.8C 41 31 64.8 20.1 89.3 11C 92.3 9.8 95.4 10.8 98.7 11C 112.5 11.5 124 22.2 136.8 27.3C 148.3 31.9 159.3 37.4 170.7 41.8C 175.2 43.5 178 48.1 178 52.9C 178 54.2 178 55.6 178 56.9"></path><path d="M 10.000001 212.999969C 10.000001 219.627369 15.372601 224.999969 22.000001 224.999969L 166.000001 224.999969C 172.627401 224.999969 178.000001 219.627369 178.000001 212.999969M 177.999985 212.999741L 177.999985 57M 10 212.999741L 10 57M 10 56.944404L 10 52.857104C 10 48.056804 12.8608 43.718304 17.273 41.827404L 89.273 10.970304C 92.2915 9.676604 95.7085 9.676604 98.727 10.970304L 170.727 41.827404C 175.1392 43.718304 178 48.056804 178 52.857104L 178 56.944404"></path></g></g></g><g id="g-root-4.bubble-4_fr_hvaopqfawiru-stroke" data-item-order="-282142" transform="translate(328, 361)"><g id="4.bubble-4_fr_hvaopqfawiru-stroke" fill="none" stroke-linecap="round" stroke-linejoin="round" stroke-miterlimit="4" stroke="#484848" stroke-width="4"><g><path d="M 10 213C 8.8 219.5 15.4 224.5 22 225C 47.9 227 74.1 223.1 100 225C 121.9 226.6 144.1 223.2 166 225C 172.6 225.5 177.9 219.6 178 213M 178 213C 176.9 184.5 178.2 155.9 178 127.4C 177.8 104 178.1 80.5 178 57M 10 213C 10.6 194.1 10.4 175.2 10 156.3C 9.7 140.6 10.9 124.9 10 109.2C 9 91.9 9.4 74.4 10 57M 10 56.9C 10 55.6 10.1 54.2 10 52.9C 9.8 48.1 12.7 43.1 17.3 41.8C 42.4 34.8 65.3 21.2 89.3 11C 92.3 9.7 95.9 9.3 98.7 11C 109.9 17.4 122.4 21.2 134.3 26.2C 146.5 31.4 158 38.3 170.7 41.8C 175.3 43.1 177.6 48.1 178 52.9C 178.1 54.2 177.8 55.6 178 56.9"></path><path d="M 10.000001 213C 10.000001 219.6274 15.372601 225 22.000001 225L 166.000001 225C 172.627401 225 178.000001 219.6274 178.000001 213M 177.999985 212.999741L 177.999985 57M 10 212.999741L 10 57M 10 56.944404L 10 52.857104C 10 48.056804 12.8608 43.718304 17.273 41.827404L 89.273 10.970304C 92.2915 9.676604 95.7085 9.676604 98.727 10.970304L 170.727 41.827404C 175.1392 43.718304 178 48.056804 178 52.857104L 178 56.944404"></path></g></g></g><g id="g-root-tx__hvaopqfawirw-stroke" data-item-order="0" transform="translate(40, 40)"></g><g id="g-root-tx__dg3noefawged-stroke" data-item-order="0" transform="translate(52, 148)"></g><g id="g-root-tx__vbqzryfazc3u-stroke" data-item-order="0" transform="translate(244, 136)"></g><g id="g-root-tx__4kgnfifawh72-stroke" data-item-order="0" transform="translate(52, 208)"></g><g id="g-root-tx__vbqzryfazc3v-stroke" data-item-order="0" transform="translate(244, 196)"></g><g id="g-root-1_4kgnfifawh73-stroke" data-item-order="0" transform="translate(94, 280)"><g id="1_4kgnfifawh73-stroke" fill="none" stroke-linecap="round" stroke-linejoin="round" stroke-miterlimit="4" stroke="#484848" stroke-width="2"><g><path d="M 34 44C 32.75 49 35.25 54.5 34 59.75C 32.75 63.75 37.5 68.25 41.75 67.5C 46 67 48.75 64 49.75 59.75C 50.75 54.5 50.25 49 49.75 44C 49.25 39.5 46.25 36.25 41.75 36C 37.5 35.75 33 39.75 34 44M 10 10M 20.75 36C 24.5 45.75 23.25 57.25 20.75 67.5M 10 10M 13 44C 13.5 43.75 14.5 43.75 15 44C 18.25 44.25 21.75 41.25 20.75 38.25C 20.5 37.5 20.75 36.75 20.75 36M 10 10M 28.75 67.5C 23.5 68.5 18.25 67 13 67.5M 10 10M 54.75 12.5C 60.25 17.25 64.25 24 67.5 30.5M 66.75 12.5C 62 18 57 23.75 54 30.5M 33.932076 43.901001L 33.932076 59.654999C 33.932076 64.005249 37.458748 67.531998 41.809002 67.531998C 46.159252 67.531998 49.686001 64.005501 49.686001 59.654999L 49.686001 43.901249C 49.686001 39.550751 46.159252 36.02425 41.809002 36.02425C 37.458748 36.02425 33.932076 39.550751 33.932076 43.901001ZM 10 10M 20.803774 36.02425L 20.803774 67.531998M 10 10M 12.926825 43.901249L 15.104525 43.901249C 18.252125 43.901249 20.803774 41.349499 20.803774 38.201748L 20.803774 36.02425M 10 10M 28.680725 67.531746L 12.926825 67.531746M 10 10M 54.741501 12.548825L 67.474754 30.5249M 66.725502 12.548825L 53.9925 30.5249"></path></g></g></g><g id="g-root-1_qwjyqmfaz9qc-stroke" data-item-order="0" transform="translate(286, 280)"><g id="1_qwjyqmfaz9qc-stroke" fill="none" stroke-linecap="round" stroke-linejoin="round" stroke-miterlimit="4" stroke="#484848" stroke-width="2"><g><path d="M 27.571428 15.142858C 29.285713 16 30.142857 18.571428 30.142857 20.714285C 32.714287 18.142857 34.857143 15.142858 37.857143 13C 38.714283 12.571428 39.142857 12.571428 40 12.142857C 40.85714 11.714286 41.285713 12.571428 42.142857 13C 44.714287 14.285714 45.999996 17.714285 48.571426 19.428572C 47.714287 19.857141 46.857143 20.714285 45.999996 21.142857C 43.857143 25.42857 43.857143 29.714285 46.42857 33.571426C 49 37.42857 56.285713 37.857143 58.42857 33.571426C 59.285713 32.714287 59.714287 32.285713 60.142857 31.42857C 61.857143 34 64.428566 36.142857 67 37.857143C 67.85714 38.285713 68.285713 39.142857 67.85714 40C 67.85714 40.85714 67.85714 42.142857 67 42.142857C 63.571426 43.42857 62.285713 48.142853 59.285713 49.857143C 63.571426 48.571426 66.14286 54.142857 67.428566 58.85714C 68.714287 63.571426 63.142853 65.714287 58.85714 67.428566C 54.571426 69.142853 51.571426 63.571426 49.857143 59.285713C 47.285713 61.857143 44.714287 64.428566 42.142857 67C 41.285713 67.428566 40.85714 68.285713 40 67.85714C 39.142857 67.85714 38.285713 67.428566 37.857143 67C 35.714287 64.85714 34 61.857143 31.42857 60.571426C 32.285713 60.142857 33.142857 59.285713 34 58.85714C 37 55 35.714287 50.714283 34 45.999996C 31.857141 41.714287 24.571428 42.571426 21.142857 46.42857C 20.714285 46.857143 19.857141 47.714287 19.428572 48.571426C 16.857143 47.285713 16 43.42857 13 42.142857C 12.142857 41.714287 12.142857 40.85714 12.142857 40C 12.142857 39.142857 12.571428 38.285713 13 37.857143C 15.142858 34.857143 19 33.142857 20.714285 30.142857C 18.571428 30.571428 16 29.285713 15.142858 27.571428C 12.571428 23.285713 10.857142 17.714285 15.142858 15.142858C 19 12.571428 25.42857 10.857142 27.571428 15.142858M 27.528572 15.1C 29.07292 16.608393 29.99123 18.643978 30.1 20.799999L 37.942856 13C 38.487667 12.3892 39.267242 12.039923 40.085712 12.039923C 40.904186 12.039923 41.683758 12.3892 42.228569 13L 48.571426 19.6C 47.670547 20.036846 46.845745 20.615656 46.128571 21.314285C 42.957783 24.801264 43.085056 30.163956 46.41769 33.49659C 49.750324 36.829224 55.113018 36.956497 58.599995 33.785713C 59.29863 33.068542 59.877438 32.243736 60.314281 31.342857L 67 37.942856C 67.610802 38.487667 67.960075 39.267242 67.960075 40.085712C 67.960075 40.904186 67.610802 41.683758 67 42.228569L 59.199997 49.900002C 63.90604 50.184574 67.548538 54.132877 67.453629 58.846558C 67.358719 63.560238 63.560238 67.358719 58.846558 67.453629C 54.132877 67.548538 50.184574 63.90604 49.900002 59.199997L 42.05714 67C 41.512329 67.610802 40.732758 67.960075 39.914284 67.960075C 39.095814 67.960075 38.316238 67.610802 37.771427 67L 31.42857 60.399998C 32.329449 59.963154 33.154255 59.384346 33.871429 58.685715C 37.315319 55.218155 37.296131 49.615322 33.828571 46.171429C 30.361013 42.727539 24.758177 42.746727 21.314287 46.214287C 20.615656 46.931458 20.036846 47.75626 19.6 48.657143L 13 42.05714C 12.3892 41.512329 12.039923 40.732758 12.039923 39.914284C 12.039923 39.095814 12.3892 38.316238 13 37.771427L 20.799999 30.1C 18.643978 29.99123 16.608393 29.07292 15.1 27.528572C 11.66896 24.096342 11.669441 18.532711 15.101076 15.101076C 18.532711 11.669441 24.096342 11.66896 27.52857 15.099999Z"></path></g></g></g><g id="g-root-shie_1hiuie6fb22v8-stroke" data-item-order="0" transform="translate(190, 396)"><g id="shie_1hiuie6fb22v8-stroke" fill="none" stroke-linecap="round" stroke-linejoin="round" stroke-miterlimit="4" stroke="#484848" stroke-width="2"><g><path d="M 53.75 27.5C 47 31 43.25 39.25 36.75 43.25C 35.75 44 34.5 44 33.25 43.25C 31.5 42.25 29.75 40.5 28.75 38.75M 16.25 13.75C 15.75 12.5 17.5 10.75 18.75 11.25C 32.25 15.25 47.5 14.25 61.25 11.25C 62.5 11 63.25 12.5 63.75 13.75C 65.75 18.5 62.5 24.25 63.75 29.5C 67.5 45.5 55 62 40 68.75C 25 61.75 15.25 46 16.25 29.5C 16.5 24.25 16.75 19 16.25 13.75M 53.75 27.5L 36.775002 43.349998C 35.806007 44.286636 34.268993 44.286636 33.299999 43.349998L 28.75 38.75M 16.25 13.75C 16.25 12.369288 17.369287 11.25 18.75 11.25L 61.25 11.25C 62.630711 11.25 63.75 12.369288 63.75 13.75L 63.75 29.400002C 63.755241 45.90942 54.609962 61.061703 40 68.75C 25.390041 61.061703 16.244761 45.90942 16.25 29.400002Z"></path></g></g></g><g id="g-root-gath_1q5qvfifb3itd-stroke" data-item-order="0" transform="translate(382, 396)"><g id="gath_1q5qvfifb3itd-stroke" fill="none" stroke-linecap="round" stroke-linejoin="round" stroke-miterlimit="4" stroke="#484848" stroke-width="2"><g><path d="M 27.25 34.5C 27.25 33.25 26.25 32 25 31.5C 23.5 31 22.25 32 21.75 33.5C 20.25 36.25 18 41.75 18.25 45.5C 18.25 46.75 18.25 48.25 18.25 49.75C 16.25 52 14.5 54.5 12 56M 17 68C 20.25 65 22.75 61.25 26.25 58.75M 52 31C 51.75 28.5 49.5 26.75 48.5 25C 47.75 23.75 46.75 22.75 45.5 22C 45 18.75 46.5 15.25 45.5 12M 33.5 12C 32.5 15 34.25 18.5 33.25 21.5C 31 21.25 29.25 23.75 28 26M 32.5 40.25C 31.5 39.25 29.5 39.25 29 40.5C 28.25 41.5 28.25 42.75 28.75 44C 32.75 46.25 35.25 50.25 38.25 53.25C 37 53.25 35.75 53.5 34.75 53C 33.25 52.25 32.25 53.75 31.5 55C 30.75 56.25 32 58.5 33.5 58.5C 36.75 58.5 41.75 62.25 45.5 62C 47 61.75 48.25 62 49.75 61.75C 51.75 63.75 53.75 66.25 56 68M 41.5 42.25C 39 40.75 37.5 38 35.25 36C 34.5 34.75 33 35.25 31.75 36C 30.5 36.5 31 38.5 31.75 39.5C 33.75 41.5 35.5 43.75 37.75 45.5M 36.25 36.75C 35.5 36 35.25 35 35.5 34.25C 35.75 33.25 36.5 32.75 37.25 32.25C 38 31.75 39.5 32.25 39.75 33C 41 35.75 43.5 37.5 45.75 39.25M 68 63C 66.25 59 62 56.75 58.75 53.75C 61.5 51.25 59.25 47 57.25 43.75C 54.25 38.75 49 35.5 45 31.5C 44 30.75 42.5 30.25 41.75 31.25C 41 32 40.75 33 41 34.25M 27.135 34.595001C 27.326633 33.139603 26.371653 31.779949 24.937569 31.466408C 23.503487 31.152866 22.068224 31.989925 21.635 33.392502C 20.647499 36.4175 18.940001 41.82 18.135 45.455002C 17.825691 46.837891 17.870405 48.276485 18.264999 49.637497L 11.9525 55.917503M 16.9625 67.979996L 26.35 58.654999M 52.012501 31.055C 50.854996 28.895 49.592499 26.639999 48.512501 24.9375C 47.752403 23.742542 46.704563 22.757452 45.465 22.0725L 45.5 11.915M 33.4175 11.925L 33.372501 21.407501C 31.002148 22.111189 29.056662 23.813831 28.045 26.07M 32.5 40.334999C 31.484194 39.397198 29.909113 39.428902 28.931868 40.406818C 27.954622 41.384735 27.924002 42.959839 28.862499 43.974998L 28.82 44.017502L 38.279999 53.299999L 34.662498 52.902496C 33.207104 52.710869 31.84745 53.665848 31.533907 55.09993C 31.220364 56.534012 32.057423 57.969276 33.459999 58.4025C 36.482502 59.389999 41.887501 61.095001 45.522499 61.9025C 46.905727 62.209702 48.343994 62.164139 49.705002 61.770004L 55.984997 68.089996M 41.607498 42.309998L 35.357498 35.915001C 34.344162 34.96003 32.755253 34.983582 31.770668 35.968166C 30.786083 36.952751 30.762529 38.541664 31.717499 39.555L 37.704998 45.4175M 36.142498 36.695C 35.459743 36.051571 35.180962 35.087734 35.414806 34.179184C 35.648655 33.27063 36.358131 32.561157 37.266682 32.327309C 38.175232 32.09346 39.139069 32.372246 39.782497 33.054996L 45.77 39.334999M 68.047501 63.077503L 58.7225 53.689999C 60.510143 50.421173 59.933262 46.365677 57.305 43.724998L 44.907501 31.475L 44.907501 31.475C 44.061268 30.637806 42.73444 30.533436 41.767715 31.228016C 40.800987 31.922598 40.476563 33.213379 41 34.282501"></path></g></g></g><g id="g-root-tx__mgqgm6fb23nm-stroke" data-item-order="0" transform="translate(184, 468)"></g><g id="g-root-tx_devops_1uo29wefb6d4z-stroke" data-item-order="0" transform="translate(352, 468)"></g><g id="g-root-tx__959y8ufb258l-stroke" data-item-order="0" transform="translate(148, 504)"></g><g id="g-root-tx__1uo29wefb6d50-stroke" data-item-order="0" transform="translate(340, 504)"></g></g></g></svg>