<?xml version="1.0" encoding="utf-8" standalone="yes"?>
<!DOCTYPE svg PUBLIC "-//W3C//DTD SVG 1.1//EN" "http://www.w3.org/Graphics/SVG/1.1/DTD/svg11.dtd">
<svg width="938" height="446" viewBox="0 0 938 446" style="fill:none;stroke:none;fill-rule:evenodd;clip-rule:evenodd;stroke-linecap:round;stroke-linejoin:round;stroke-miterlimit:1.5;" version="1.1" xmlns="http://www.w3.org/2000/svg" xmlns:xlink="http://www.w3.org/1999/xlink"><style class="text-font-style fontImports" data-font-family="Shantell Sans">@import url('https://fonts.googleapis.com/css2?family=Shantell+Sans:wght@300..800&amp;display=block');</style><rect id="" x="0" y="0" width="938" height="446" style="fill: #ffffff;"></rect><g id="items" style="isolation: isolate"><g id="blend" style="mix-blend-mode: normal"><g id="g-root-tf_hydqqmdx8dty-fill" data-item-order="-415584" transform="translate(-9, -9)"><g id="tf_hydqqmdx8dty-fill" stroke="none" fill="#ffffff"><g><path d="M 10 10L 946 10L 946 454L 10 454Z"></path></g></g></g><g id="g-root-1.bubble-1_fr_de88f2dn1qmb-fill" data-item-order="-319670" transform="translate(39, 122.99996948242188)"><g id="1.bubble-1_fr_de88f2dn1qmb-fill" stroke="none" fill="#fff8b6"><g><path d="M 34 22C 27.3726 22 22 27.3726 22 34L 10 34C 10 20.7452 20.7452 10 34 10L 34 22ZM 178 22L 178 10L 34 10.000001L 34.000003 22L 178 22ZM 178.000003 10C 191.2548 10 202 20.7452 202 34L 190 34C 190 27.3726 184.6274 22 178 22L 178.000003 10ZM 202 34L 202 118L 190 118L 190 34L 202 34ZM 10.000004 118L 10 34.00001L 22 34.00001L 22 118L 10.000004 118ZM 22 118C 22 124.6274 27.3726 130 34 130L 34 142L 10 142L 10 118L 22 118ZM 190 118C 190 124.6274 184.6274 130 178 130L 178 142L 202 142L 202 118L 190 118ZM 94 130L 34 130L 34 142L 178 142L 178 130L 118 130L 108.8284 139.1716C 107.2663 140.7337 104.7337 140.7337 103.1716 139.1716L 94 130Z"></path></g></g></g><g id="g-root-1.bubble-1_1_fr_4il866dn1rf1-fill" data-item-order="-319618" transform="translate(39, 254.99996948242188)"><g id="1.bubble-1_1_fr_4il866dn1rf1-fill" stroke="none" fill="#fff8b6"><g><path d="M 202 10.000005L 202 58L 10 58L 10.000004 10L 202 10.000005ZM 34 82C 20.7452 82 9.999999 71.2548 10 58L 34 58.000002L 34 82ZM 202 58L 178 58L 178 82C 191.2548 82 202 71.2548 202 58ZM 34 82L 34 58L 178 58L 178 82L 34 82Z"></path></g></g></g><g id="g-root-2.bubble-2_fr_3e74udn1p1j-fill" data-item-order="-319592" transform="translate(255, 122.99996948242188)"><g id="2.bubble-2_fr_3e74udn1p1j-fill" stroke="none" fill="#e9ffb9"><g><path d="M 34 22C 27.3726 22 22 27.3726 22 34L 10 34C 10 20.7452 20.7452 10 34 10L 34 22ZM 178 22L 178 10L 34 10.000001L 34.000003 22L 178 22ZM 178.000003 10C 191.2548 10 202 20.7452 202 34L 190 34C 190 27.3726 184.6274 22 178 22L 178.000003 10ZM 202 34L 202 118L 190 118L 190 34L 202 34ZM 10.000004 118L 10 34.00001L 22 34.00001L 22 118L 10.000004 118ZM 22 118C 22 124.6274 27.3726 130 34 130L 34 142L 10 142L 10 118L 22 118ZM 190 118C 190 124.6274 184.6274 130 178 130L 178 142L 202 142L 202 118L 190 118ZM 94 130L 34 130L 34 142L 178 142L 178 130L 118 130L 108.8284 139.1716C 107.2663 140.7337 104.7337 140.7337 103.1716 139.1716L 94 130Z"></path></g></g></g><g id="g-root-2.bubble-2_1_fr_1uooqzidn1pmp-fill" data-item-order="-319540" transform="translate(255, 254.99996948242188)"><g id="2.bubble-2_1_fr_1uooqzidn1pmp-fill" stroke="none" fill="#e9ffb9"><g><path d="M 202 10.000005L 202 58L 10 58L 10.000004 10L 202 10.000005ZM 34 82C 20.7452 82 9.999999 71.2548 10 58L 34 58.000002L 34 82ZM 202 58L 178 58L 178 82C 191.2548 82 202 71.2548 202 58ZM 34 82L 34 58L 178 58L 178 82L 34 82Z"></path></g></g></g><g id="g-root-3.bubble-3_fr_1lt1qqmdn1qff-fill" data-item-order="-319514" transform="translate(471, 122.99996948242188)"><g id="3.bubble-3_fr_1lt1qqmdn1qff-fill" stroke="none" fill="#c8ffe5"><g><path d="M 34 22C 27.3726 22 22 27.3726 22 34L 10 34C 10 20.7452 20.7452 10 34 10L 34 22ZM 178 22L 178 10L 34 10.000001L 34.000003 22L 178 22ZM 178.000003 10C 191.2548 10 202 20.7452 202 34L 190 34C 190 27.3726 184.6274 22 178 22L 178.000003 10ZM 202 34L 202 142L 190 142L 190 34L 202 34ZM 10.000004 142L 10 34.000011L 22 34.000011L 22 142L 10.000004 142ZM 22 142C 22 148.6274 27.3726 154 34 154L 34 166L 10 166L 10 142L 22 142ZM 190 142C 190 148.6274 184.6274 154 178 154L 178 166L 202 166L 202 142L 190 142ZM 94 154L 34 154L 34 166L 178 166L 178 154L 118 154L 108.8284 163.1716C 107.2663 164.7337 104.7337 164.7337 103.1716 163.1716L 94 154Z"></path></g></g></g><g id="g-root-3.bubble-3_1_fr_1hd88m6dn1r7p-fill" data-item-order="-319462" transform="translate(471, 278.9999694824219)"><g id="3.bubble-3_1_fr_1hd88m6dn1r7p-fill" stroke="none" fill="#c8ffe5"><g><path d="M 202 10.000008L 202 82L 10 82L 10.000004 10L 202 10.000008ZM 34 106C 20.7452 106 9.999999 95.2548 10 82L 34 82.000002L 34 106ZM 202 82L 178 82L 178 106C 191.2548 106 202 95.2548 202 82ZM 34 106L 34 82L 178 82L 178 106L 34 106Z"></path></g></g></g><g id="g-root-4.bubble-4_fr_18hl8dadn1s0f-fill" data-item-order="-319436" transform="translate(687, 122.99996948242188)"><g id="4.bubble-4_fr_18hl8dadn1s0f-fill" stroke="none" fill="#d1f4ff"><g><path d="M 34 22C 27.3726 22 22 27.3726 22 34L 10 34C 10 20.7452 20.7452 10 34 10L 34 22ZM 178 22L 178 10L 34 10.000001L 34.000003 22L 178 22ZM 178.000003 10C 191.2548 10 202 20.7452 202 34L 190 34C 190 27.3726 184.6274 22 178 22L 178.000003 10ZM 202 34L 202 118L 190 118L 190 34L 202 34ZM 10.000004 118L 10 34.00001L 22 34.00001L 22 118L 10.000004 118ZM 22 118C 22 124.6274 27.3726 130 34 130L 34 142L 10 142L 10 118L 22 118ZM 190 118C 190 124.6274 184.6274 130 178 130L 178 142L 202 142L 202 118L 190 118ZM 94 130L 34 130L 34 142L 178 142L 178 130L 118 130L 108.8284 139.1716C 107.2663 140.7337 104.7337 140.7337 103.1716 139.1716L 94 130Z"></path></g></g></g><g id="g-root-4.bubble-4_1_fr_1cxeqhqdn1s01-fill" data-item-order="-319382" transform="translate(687, 254.99996948242188)"><g id="4.bubble-4_1_fr_1cxeqhqdn1s01-fill" stroke="none" fill="#d1f4ff"><g><path d="M 202 10.000008L 202 82L 10 82L 10.000004 10L 202 10.000008ZM 34 106C 20.7452 106 9.999999 95.2548 10 82L 34 82.000002L 34 106ZM 202 82L 178 82L 178 106C 191.2548 106 202 95.2548 202 82ZM 34 106L 34 82L 178 82L 178 106L 34 106Z"></path></g></g></g><g id="g-root-tx__142e7bydn1pmz-fill" data-item-order="0" transform="translate(303, 39)"><g id="tx__142e7bydn1pmz-fill" stroke="none" fill="#484848"><g><text style="font: bold 25px &quot;Shantell Sans&quot;, cursive; white-space: pre;" font-weight="bold" font-size="25px" font-family="'Shantell Sans', cursive"><tspan x="16" y="44.5" dominant-baseline="ideographic">クラウドネイティブの概念</tspan></text></g></g></g><g id="g-root-arro_qqxoymdn1r7w-fill" data-item-order="0" transform="translate(111, 146.99996948242188)"></g><g id="g-root-serv_18fohpadx1atr-fill" data-item-order="0" transform="translate(327, 146.99996948242188)"></g><g id="g-root-floa_1lxdqxqdx45ja-fill" data-item-order="0" transform="translate(543, 146.99996948242188)"></g><g id="g-root-crea_8z5i6dx46bw-fill" data-item-order="0" transform="translate(759, 146.99996948242188)"></g><g id="g-root-tx__m7c0wudx1b0v-fill" data-item-order="0" transform="translate(111, 206.99996948242188)"><g id="tx__m7c0wudx1b0v-fill" stroke="none" fill="#e0cb15"><g><text style="font: bold 20px &quot;Shantell Sans&quot;, cursive; white-space: pre;" font-weight="bold" font-size="20px" font-family="'Shantell Sans', cursive"><tspan x="14" y="35.5" dominant-baseline="ideographic">概念</tspan></text></g></g></g><g id="g-root-tx__hydqqmdx44xv-fill" data-item-order="0" transform="translate(285, 206.99996948242188)"><g id="tx__hydqqmdx44xv-fill" stroke="none" fill="#92bd39"><g><text style="font: bold 20px &quot;Shantell Sans&quot;, cursive; white-space: pre;" font-weight="bold" font-size="20px" font-family="'Shantell Sans', cursive"><tspan x="16" y="35.5" dominant-baseline="ideographic">サービス役割</tspan></text></g></g></g><g id="g-root-tx__146q7j2dx44qp-fill" data-item-order="0" transform="translate(495, 206.99996948242188)"><g id="tx__146q7j2dx44qp-fill" stroke="none" fill="#3cc583"><g><text style="font: bold 20px &quot;Shantell Sans&quot;, cursive; white-space: pre;" font-weight="bold" font-size="20px" font-family="'Shantell Sans', cursive"><tspan x="12.4" y="35.5" dominant-baseline="ideographic">アーキテクチャ</tspan><tspan x="42.59" y="59.5" dominant-baseline="ideographic">パターン</tspan></text></g></g></g><g id="g-root-tx__qp0yamdx8c23-fill" data-item-order="0" transform="translate(741, 206.99996948242188)"><g id="tx__qp0yamdx8c23-fill" stroke="none" fill="#1eabda"><g><text style="font: bold 20px &quot;Shantell Sans&quot;, cursive; white-space: pre;" font-weight="bold" font-size="20px" font-family="'Shantell Sans', cursive"><tspan x="12" y="35.5" dominant-baseline="ideographic">作成方法</tspan></text></g></g></g><g id="g-root-tx__1hap0v2dx1d6t-fill" data-item-order="0" transform="translate(63, 266.9999694824219)"><g id="tx__1hap0v2dx1d6t-fill" stroke="none" fill="#e0cb15"><g><text style="font: 15px &quot;Shantell Sans&quot;, cursive; white-space: pre;" font-size="15px" font-family="'Shantell Sans', cursive"><tspan x="14.72" y="29" dominant-baseline="ideographic">クラウドネイティブ</tspan><tspan x="14.5" y="47" dominant-baseline="ideographic">の概念を理解する。</tspan></text></g></g></g><g id="g-root-tx_aws_1qd7926dx44r0-fill" data-item-order="0" transform="translate(279, 266.9999694824219)"><g id="tx_aws_1qd7926dx44r0-fill" stroke="none" fill="#92bd39"><g><text style="font: 15px &quot;Shantell Sans&quot;, cursive; white-space: pre;" font-size="15px" font-family="'Shantell Sans', cursive"><tspan x="12.94" y="29" dominant-baseline="ideographic">AWSの主要サービス</tspan><tspan x="14.5" y="47" dominant-baseline="ideographic">の役割を把握する。</tspan></text></g></g></g><g id="g-root-tx__1qbyavydx8bgo-fill" data-item-order="0" transform="translate(711, 266.9999694824219)"><g id="tx__1qbyavydx8bgo-fill" stroke="none" fill="#1eabda"><g><text style="font: 15px &quot;Shantell Sans&quot;, cursive; white-space: pre;" font-size="15px" font-family="'Shantell Sans', cursive"><tspan x="14.88" y="32" dominant-baseline="ideographic">アーキテクチャ図の</tspan><tspan x="22" y="50" dominant-baseline="ideographic">作成方法を習得す</tspan><tspan x="67" y="68" dominant-baseline="ideographic">る。</tspan></text></g></g></g><g id="g-root-tx__94m5r2dx45j7-fill" data-item-order="0" transform="translate(495, 290.9999694824219)"><g id="tx__94m5r2dx45j7-fill" stroke="none" fill="#3cc583"><g><text style="font: 15px &quot;Shantell Sans&quot;, cursive; white-space: pre;" font-size="15px" font-family="'Shantell Sans', cursive"><tspan x="14.88" y="32" dominant-baseline="ideographic">基本的なアーキテク</tspan><tspan x="22.97" y="50" dominant-baseline="ideographic">チャパターンを学</tspan><tspan x="67" y="68" dominant-baseline="ideographic">ぶ。</tspan></text></g></g></g><g id="g-root-tf_hydqqmdx8dty-stroke" data-item-order="-415584" transform="translate(-9, -9)"></g><g id="g-root-1.bubble-1_fr_de88f2dn1qmb-stroke" data-item-order="-319670" transform="translate(39, 122.99996948242188)"><g id="1.bubble-1_fr_de88f2dn1qmb-stroke" fill="none" stroke-linecap="round" stroke-linejoin="round" stroke-miterlimit="4" stroke="#ffffff" stroke-width="2"><g><path d="M 10 34C 10 20.7452 20.7452 10 34 10M 178 10L 34 10M 202 34C 202 20.7452 191.2548 10 178 10M 202 142L 202 34M 10 142L 10 34M 22 34C 22 27.3726 27.3726 22 34 22M 178 22L 34 22M 190 34C 190 27.3726 184.6274 22 178 22M 190 117.9998L 190 34M 178 130C 184.6274 130 190 124.6274 190 118M 34 130L 94 130L 103.1716 139.1716C 104.7337 140.7337 107.2663 140.7337 108.8284 139.1716L 118 130L 178 130M 34 130C 27.3726 130 22 124.6274 22 118M 22 117.9998L 22 34"></path></g></g></g><g id="g-root-1.bubble-1_1_fr_4il866dn1rf1-stroke" data-item-order="-319618" transform="translate(39, 254.99996948242188)"><g id="1.bubble-1_1_fr_4il866dn1rf1-stroke" fill="none" stroke-linecap="round" stroke-linejoin="round" stroke-miterlimit="4" stroke="#ffffff" stroke-width="2"><g><path d="M 202 58L 202 10M 178 82C 191.2548 82 202 71.2548 202 58M 34 82L 178 82M 34 82C 20.7452 82 10 71.2548 10 58M 10 58L 10 10"></path></g></g></g><g id="g-root-2.bubble-2_fr_3e74udn1p1j-stroke" data-item-order="-319592" transform="translate(255, 122.99996948242188)"><g id="2.bubble-2_fr_3e74udn1p1j-stroke" fill="none" stroke-linecap="round" stroke-linejoin="round" stroke-miterlimit="4" stroke="#ffffff" stroke-width="2"><g><path d="M 10 34C 10 20.7452 20.7452 10 34 10M 178 10L 34 10M 202 34C 202 20.7452 191.2548 10 178 10M 202 142L 202 34M 10 142L 10 34M 22 34C 22 27.3726 27.3726 22 34 22M 178 22L 34 22M 190 34C 190 27.3726 184.6274 22 178 22M 190 117.9998L 190 34M 178 130C 184.6274 130 190 124.6274 190 118M 34 130L 94 130L 103.1716 139.1716C 104.7337 140.7337 107.2663 140.7337 108.8284 139.1716L 118 130L 178 130M 34 130C 27.3726 130 22 124.6274 22 118M 22 117.9998L 22 34"></path></g></g></g><g id="g-root-2.bubble-2_1_fr_1uooqzidn1pmp-stroke" data-item-order="-319540" transform="translate(255, 254.99996948242188)"><g id="2.bubble-2_1_fr_1uooqzidn1pmp-stroke" fill="none" stroke-linecap="round" stroke-linejoin="round" stroke-miterlimit="4" stroke="#ffffff" stroke-width="2"><g><path d="M 202 58L 202 10M 178 82C 191.2548 82 202 71.2548 202 58M 34 82L 178 82M 34 82C 20.7452 82 10 71.2548 10 58M 10 58L 10 10"></path></g></g></g><g id="g-root-3.bubble-3_fr_1lt1qqmdn1qff-stroke" data-item-order="-319514" transform="translate(471, 122.99996948242188)"><g id="3.bubble-3_fr_1lt1qqmdn1qff-stroke" fill="none" stroke-linecap="round" stroke-linejoin="round" stroke-miterlimit="4" stroke="#ffffff" stroke-width="2"><g><path d="M 10 34C 10 20.7452 20.7452 10 34 10M 178 10L 34 10M 202 34C 202 20.7452 191.2548 10 178 10M 202 166L 202 34M 10 166L 10 34M 22 34C 22 27.3726 27.3726 22 34 22M 178 22L 34 22M 190 34C 190 27.3726 184.6274 22 178 22M 190 141.999741L 190 34M 178 154C 184.6274 154 190 148.6274 190 142M 34 154L 94 154L 103.1716 163.1716C 104.7337 164.7337 107.2663 164.7337 108.8284 163.1716L 118 154L 178 154M 34 154C 27.3726 154 22 148.6274 22 142M 22 141.999741L 22 34"></path></g></g></g><g id="g-root-3.bubble-3_1_fr_1hd88m6dn1r7p-stroke" data-item-order="-319462" transform="translate(471, 278.9999694824219)"><g id="3.bubble-3_1_fr_1hd88m6dn1r7p-stroke" fill="none" stroke-linecap="round" stroke-linejoin="round" stroke-miterlimit="4" stroke="#ffffff" stroke-width="2"><g><path d="M 202 82L 202 10M 178 106C 191.2548 106 202 95.2548 202 82M 34 106L 178 106M 34 106C 20.7452 106 10 95.2548 10 82M 10 82L 10 10"></path></g></g></g><g id="g-root-4.bubble-4_fr_18hl8dadn1s0f-stroke" data-item-order="-319436" transform="translate(687, 122.99996948242188)"><g id="4.bubble-4_fr_18hl8dadn1s0f-stroke" fill="none" stroke-linecap="round" stroke-linejoin="round" stroke-miterlimit="4" stroke="#ffffff" stroke-width="2"><g><path d="M 10 34C 10 20.7452 20.7452 10 34 10M 178 10L 34 10M 202 34C 202 20.7452 191.2548 10 178 10M 202 142L 202 34M 10 142L 10 34M 22 34C 22 27.3726 27.3726 22 34 22M 178 22L 34 22M 190 34C 190 27.3726 184.6274 22 178 22M 190 117.9998L 190 34M 178 130C 184.6274 130 190 124.6274 190 118M 34 130L 94 130L 103.1716 139.1716C 104.7337 140.7337 107.2663 140.7337 108.8284 139.1716L 118 130L 178 130M 34 130C 27.3726 130 22 124.6274 22 118M 22 117.9998L 22 34"></path></g></g></g><g id="g-root-4.bubble-4_1_fr_1cxeqhqdn1s01-stroke" data-item-order="-319382" transform="translate(687, 254.99996948242188)"><g id="4.bubble-4_1_fr_1cxeqhqdn1s01-stroke" fill="none" stroke-linecap="round" stroke-linejoin="round" stroke-miterlimit="4" stroke="#ffffff" stroke-width="2"><g><path d="M 202 82L 202 10M 178 106C 191.2548 106 202 95.2548 202 82M 34 106L 178 106M 34 106C 20.7452 106 10 95.2548 10 82M 10 82L 10 10"></path></g></g></g><g id="g-root-tx__142e7bydn1pmz-stroke" data-item-order="0" transform="translate(303, 39)"></g><g id="g-root-arro_qqxoymdn1r7w-stroke" data-item-order="0" transform="translate(111, 146.99996948242188)"><g id="arro_qqxoymdn1r7w-stroke" fill="none" stroke-linecap="round" stroke-linejoin="round" stroke-miterlimit="4" stroke="#e0cb15" stroke-width="2"><g><path d="M 23.94796 22.671879L 20.273441 22.671879C 15.85516 22.671879 12.273439 26.253599 12.273439 30.671801L 12.273439 41.125C 12.273439 45.543201 15.85516 49.125 20.273441 49.125L 31.763201 49.125M 48.891201 33.711601C 52.620602 33.711601 55.7286 30.4484 55.7286 26.718941C 55.7286 22.9895 52.620602 19.88162 48.891201 19.88162C 47.492599 19.88162 46.0942 20.347801 45.006401 21.124779C 44.074001 16.307579 39.878403 12.57812 34.750401 12.57812C 29.000799 12.57812 24.183601 17.239941 24.183601 23.144901C 24.183601 29.04986 28.8454 33.711601 34.750401 33.711601L 48.891201 33.711601ZM 10 10M 41.109398 49.125L 55.726601 49.125M 10 10M 26.144541 42.828201L 32.4394 49.119202L 26.144541 55.4142M 10 10M 46.6954 55.421799L 40.399002 49.129398L 46.6954 42.833"></path></g></g></g><g id="g-root-serv_18fohpadx1atr-stroke" data-item-order="0" transform="translate(327, 146.99996948242188)"><g id="serv_18fohpadx1atr-stroke" fill="none" stroke-linecap="round" stroke-linejoin="round" stroke-miterlimit="4" stroke="#92bd39" stroke-width="2"><g><path d="M 12 18.375999C 13.252717 17.777618 14.61307 17.437531 16 17.375999C 18 17.375999 21 18.375999 21 20.375999L 21 28.375999C 21.105679 29.134077 21.456947 29.836613 22 30.376001M 21 25.375999C 19.630825 24.12536 17.853983 23.414623 16 23.376001C 14.910016 23.269753 13.829689 23.656914 13.055301 24.431301C 12.280912 25.205688 11.893752 26.286016 12 27.376001C 12 29.375999 13 30.375999 16 30.375999C 18.028259 30.16448 19.858891 29.066101 21 27.375999ZM 26.5 17.375999L 30.5 30.374001L 34.5 17.375999L 38.5 30.374001L 42.5 17.375999M 48 29.374001C 49.167789 30.181728 50.589493 30.537153 52 30.374001C 55 30.374001 56 28.374001 56 27.374001C 56 22.598 48 25.147999 48 20.374001C 48 19.374001 49 17.374001 52 17.374001C 53.410545 17.210289 54.832443 17.565765 56 18.374001M 11 41.672001C 16.22966 47.430138 23.665722 50.686234 31.444 50.624001C 44.734001 50.624001 50.355999 44.306 50.355999 44.306M 45.812 39.566002C 48.535999 36.498001 56.546001 37.986 56.546001 37.986C 56.546001 37.986 58.265999 46.285999 55.012001 49.046001"></path></g></g></g><g id="g-root-floa_1lxdqxqdx45ja-stroke" data-item-order="0" transform="translate(543, 146.99996948242188)"><g id="floa_1lxdqxqdx45ja-stroke" fill="none" stroke-linecap="round" stroke-linejoin="round" stroke-miterlimit="4" stroke="#3cc583" stroke-width="2"><g><path d="M 11 34C 11 46.702549 21.297451 57 34 57C 46.702549 57 57 46.702549 57 34C 57 21.297451 46.702549 11 34 11C 21.297451 11 11 21.297451 11 34ZM 26 34C 26 38.418278 29.581722 42 34 42C 38.418278 42 42 38.418278 42 34C 42 29.581722 38.418278 26 34 26C 29.581722 26 26 29.581722 26 34ZM 37 22.380001C 41.225761 23.474302 44.525696 26.774233 45.619999 30.999998L 52.762001 30.988001C 51.458832 22.891809 45.111858 16.543221 37.015999 15.238ZM 31 15.234C 22.893269 16.536842 16.536842 22.893269 15.233999 30.999998L 22.378 31C 23.483971 26.781843 26.780561 23.489075 31.000002 22.388ZM 37 52.764C 45.107014 51.463154 51.464127 45.10685 52.766003 37L 45.619999 37C 44.528706 41.212967 41.245392 44.506992 37.035999 45.612ZM 31 45.619999C 26.775114 44.524162 23.475842 41.224888 22.380001 37L 15.242001 37.014C 16.545465 45.114456 22.898884 51.464649 31 52.764Z"></path></g></g></g><g id="g-root-crea_8z5i6dx46bw-stroke" data-item-order="0" transform="translate(759, 146.99996948242188)"><g id="crea_8z5i6dx46bw-stroke" fill="none" stroke-linecap="round" stroke-linejoin="round" stroke-miterlimit="4" stroke="#1eabda" stroke-width="2"><g><path d="M 39 30.799999L 32 32.799999L 34 25.799999L 48.292 11.498C 48.479607 11.309916 48.734344 11.204212 49 11.204212C 49.265656 11.204212 49.520393 11.309916 49.708 11.498L 53.292 15.084C 53.682381 15.4745 53.682381 16.1075 53.292 16.498001ZM 45 14.792L 50 19.792M 33.996002 25.793999L 38.996002 30.794001M 54 20.799999L 56 20.799999C 56.552284 20.799999 57 21.247715 57 21.799999L 57 55.799999C 57 56.352283 56.552284 56.799999 56 56.799999L 12 56.799999C 11.447716 56.799999 11 56.352283 11 55.799999L 11 21.799999C 11 21.247715 11.447716 20.799999 12 20.799999L 34 20.799999M 26 26.799999L 18 26.799999C 17.447716 26.799999 17 27.247715 17 27.799999L 17 49.799999C 17 50.352283 17.447716 50.799999 18 50.799999L 35 50.799999L 35 43.799999C 35 43.247715 35.447716 42.799999 36 42.799999L 44 42.799999C 44.552284 42.799999 45 43.247715 45 43.799999L 45 50.799999L 50 50.799999C 50.552284 50.799999 51 50.352283 51 49.799999L 51 27.799999M 35 46.793999L 45 46.793999M 35 50.793999L 45 50.793999M 17 36.793999L 26 36.793999M 42 38.793999L 51 38.793999M 42 34.793999L 51 34.793999M 17 42.799999L 24 42.799999C 24.552284 42.799999 25 43.247715 25 43.799999L 25 50.799999"></path></g></g></g><g id="g-root-tx__m7c0wudx1b0v-stroke" data-item-order="0" transform="translate(111, 206.99996948242188)"></g><g id="g-root-tx__hydqqmdx44xv-stroke" data-item-order="0" transform="translate(285, 206.99996948242188)"></g><g id="g-root-tx__146q7j2dx44qp-stroke" data-item-order="0" transform="translate(495, 206.99996948242188)"></g><g id="g-root-tx__qp0yamdx8c23-stroke" data-item-order="0" transform="translate(741, 206.99996948242188)"></g><g id="g-root-tx__1hap0v2dx1d6t-stroke" data-item-order="0" transform="translate(63, 266.9999694824219)"></g><g id="g-root-tx_aws_1qd7926dx44r0-stroke" data-item-order="0" transform="translate(279, 266.9999694824219)"></g><g id="g-root-tx__1qbyavydx8bgo-stroke" data-item-order="0" transform="translate(711, 266.9999694824219)"></g><g id="g-root-tx__94m5r2dx45j7-stroke" data-item-order="0" transform="translate(495, 290.9999694824219)"></g></g></g></svg>