<?xml version="1.0" encoding="utf-8" standalone="yes"?>
<!DOCTYPE svg PUBLIC "-//W3C//DTD SVG 1.1//EN" "http://www.w3.org/Graphics/SVG/1.1/DTD/svg11.dtd">
<svg width="602" height="494" viewBox="0 0 602 494" style="fill:none;stroke:none;fill-rule:evenodd;clip-rule:evenodd;stroke-linecap:round;stroke-linejoin:round;stroke-miterlimit:1.5;" version="1.1" xmlns="http://www.w3.org/2000/svg" xmlns:xlink="http://www.w3.org/1999/xlink"><style class="text-font-style fontImports" data-font-family="Roboto">@import url('https://fonts.googleapis.com/css2?family=Roboto:wght@400;700&amp;display=block');</style><rect id="" x="0" y="0" width="602" height="494" style="fill: #ffffff;"></rect><g id="items" style="isolation: isolate"><g id="blend" style="mix-blend-mode: normal"><g id="g-root-tf_dbpdceeh1wjs-fill" data-item-order="-295200" transform="translate(-9, -9)"><g id="tf_dbpdceeh1wjs-fill" stroke="none" fill="#ffffff"><g><path d="M 10 10L 610 10L 610 502L 10 502Z"></path></g></g></g><g id="g-root-4.cu_sy_18nt0i6eh0h6v-fill" data-item-order="-57594" transform="translate(171, 159)"><g id="4.cu_sy_18nt0i6eh0h6v-fill" stroke="none" fill="url(#gradient-ffed4b-499785973)"><g><path d="M 130 46C 83.6081 46 46 83.6081 46 130L 10 130C 10 63.7258 63.7258 10 130 10L 130 46Z"></path></g></g></g><g id="g-root-3.cu_sy_147zidqeh0hz4-fill" data-item-order="-57590" transform="translate(171, 279)"><g id="3.cu_sy_147zidqeh0hz4-fill" stroke="none" fill="url(#gradient-bceb57-497517668)"><g><path d="M 46 10C 46 56.3919 83.6081 94 130 94L 130 130C 63.7258 130 10 76.2742 10 10L 46 10Z"></path></g></g></g><g id="g-root-2.cu_sy_147zidqeh0hz5-fill" data-item-order="-57586" transform="translate(291, 279)"><g id="2.cu_sy_147zidqeh0hz5-fill" stroke="none" fill="url(#gradient-64edab-240055791)"><g><path d="M 10 94C 56.3919 94 94 56.3919 94 10L 130 10C 130 76.2742 76.2742 130 10 130L 10 94Z"></path></g></g></g><g id="g-root-1.cu_sy_vcci4ueh0iru-fill" data-item-order="-57582" transform="translate(291, 159)"><defs><linearGradient id="gradient-ffed4b-499785973" x2="0" y2="1"><stop offset="0" stop-color="#fff282"></stop><stop offset="1" stop-color="#ffe714"></stop></linearGradient><linearGradient id="gradient-bceb57-497517668" x2="0" y2="1"><stop offset="0" stop-color="#cff976"></stop><stop offset="1" stop-color="#a8dd38"></stop></linearGradient><linearGradient id="gradient-64edab-240055791" x2="0" y2="1"><stop offset="0" stop-color="#83fac1"></stop><stop offset="1" stop-color="#44e095"></stop></linearGradient><linearGradient id="gradient-4dd3ff-378786070" x2="0" y2="1"><stop offset="0" stop-color="#7fdfff"></stop><stop offset="1" stop-color="#1ac6ff"></stop></linearGradient></defs><g id="1.cu_sy_vcci4ueh0iru-fill" stroke="none" fill="url(#gradient-4dd3ff-378786070)"><g><path d="M 94 130C 94 83.6081 56.3919 46 10 46L 10 10C 76.2742 10 130 63.7258 130 130L 94 130Z"></path></g></g></g><g id="g-root-tx__vcci4ueh0irv-fill" data-item-order="0" transform="translate(111, 39)"><g id="tx__vcci4ueh0irv-fill" stroke="none" fill="#484848"><g><text style="font: 20px Roboto, sans-serif; white-space: pre;" font-size="20px" font-family="Roboto, sans-serif"><tspan x="12.1" y="33.5" dominant-baseline="ideographic">マイクロサービスアーキテクチャの理解</tspan></text></g></g></g><g id="g-root-tx__qwj00eeh0jk4-fill" data-item-order="0" transform="translate(15, 147)"><g id="tx__qwj00eeh0jk4-fill" stroke="none" fill="#484848"><g><text style="font: 20px Roboto, sans-serif; white-space: pre;" font-size="20px" font-family="Roboto, sans-serif"><tspan x="19" y="33.5" dominant-baseline="ideographic">サーバーレス統合</tspan></text></g></g></g><g id="g-root-tx__hrivgueh1vrj-fill" data-item-order="0" transform="translate(399, 147)"><g id="tx__hrivgueh1vrj-fill" stroke="none" fill="#484848"><g><text style="font: 20px Roboto, sans-serif; white-space: pre;" font-size="20px" font-family="Roboto, sans-serif"><tspan x="12" y="33.5" dominant-baseline="ideographic">サービスの独立性</tspan></text></g></g></g><g id="g-root-tx__hrivgueh1vrh-fill" data-item-order="0" transform="translate(75, 387)"><g id="tx__hrivgueh1vrh-fill" stroke="none" fill="#484848"><g><text style="font: 20px Roboto, sans-serif; white-space: pre;" font-size="20px" font-family="Roboto, sans-serif"><tspan x="16" y="33.5" dominant-baseline="ideographic">コンテナ化</tspan></text></g></g></g><g id="g-root-tx__hrivgueh1vri-fill" data-item-order="0" transform="translate(399, 387)"><g id="tx__hrivgueh1vri-fill" stroke="none" fill="#484848"><g><text style="font: 20px Roboto, sans-serif; white-space: pre;" font-size="20px" font-family="Roboto, sans-serif"><tspan x="12" y="33.5" dominant-baseline="ideographic">個別のデプロイメ</tspan><tspan x="12" y="57.5" dominant-baseline="ideographic">ント</tspan></text></g></g></g><g id="g-root-tf_dbpdceeh1wjs-stroke" data-item-order="-295200" transform="translate(-9, -9)"></g><g id="g-root-4.cu_sy_18nt0i6eh0h6v-stroke" data-item-order="-57594" transform="translate(171, 159)"><g id="4.cu_sy_18nt0i6eh0h6v-stroke" fill="none" stroke-linecap="round" stroke-linejoin="round" stroke-miterlimit="4" stroke="#484848" stroke-width="2"><g><path d="M 130 10C 63.7258 10 10 63.7258 10 130L 46 130C 46 83.6081 83.6081 46 130 46L 130 10Z"></path></g></g></g><g id="g-root-3.cu_sy_147zidqeh0hz4-stroke" data-item-order="-57590" transform="translate(171, 279)"><g id="3.cu_sy_147zidqeh0hz4-stroke" fill="none" stroke-linecap="round" stroke-linejoin="round" stroke-miterlimit="4" stroke="#484848" stroke-width="2"><g><path d="M 130 130C 63.7258 130 10 76.2742 10 10L 46 10C 46 56.3919 83.6081 94 130 94L 130 130Z"></path></g></g></g><g id="g-root-2.cu_sy_147zidqeh0hz5-stroke" data-item-order="-57586" transform="translate(291, 279)"><g id="2.cu_sy_147zidqeh0hz5-stroke" fill="none" stroke-linecap="round" stroke-linejoin="round" stroke-miterlimit="4" stroke="#484848" stroke-width="2"><g><path d="M 130 10C 130 76.2742 76.2742 130 10 130L 10 94C 56.3919 94 94 56.3919 94 10L 130 10Z"></path></g></g></g><g id="g-root-1.cu_sy_vcci4ueh0iru-stroke" data-item-order="-57582" transform="translate(291, 159)"><g id="1.cu_sy_vcci4ueh0iru-stroke" fill="none" stroke-linecap="round" stroke-linejoin="round" stroke-miterlimit="4" stroke="#484848" stroke-width="2"><g><path d="M 130 130C 130 63.7258 76.2742 10 10 10L 10 46C 56.3919 46 94 83.6081 94 130L 130 130Z"></path></g></g></g><g id="g-root-tx__vcci4ueh0irv-stroke" data-item-order="0" transform="translate(111, 39)"></g><g id="g-root-tx__qwj00eeh0jk4-stroke" data-item-order="0" transform="translate(15, 147)"></g><g id="g-root-tx__hrivgueh1vrj-stroke" data-item-order="0" transform="translate(399, 147)"></g><g id="g-root-tx__hrivgueh1vrh-stroke" data-item-order="0" transform="translate(75, 387)"></g><g id="g-root-tx__hrivgueh1vri-stroke" data-item-order="0" transform="translate(399, 387)"></g></g></g></svg>