<?xml version="1.0" encoding="utf-8" standalone="yes"?>
<!DOCTYPE svg PUBLIC "-//W3C//DTD SVG 1.1//EN" "http://www.w3.org/Graphics/SVG/1.1/DTD/svg11.dtd">
<svg width="542" height="580" viewBox="0 0 542 580" style="fill:none;stroke:none;fill-rule:evenodd;clip-rule:evenodd;stroke-linecap:round;stroke-linejoin:round;stroke-miterlimit:1.5;" version="1.1" xmlns="http://www.w3.org/2000/svg" xmlns:xlink="http://www.w3.org/1999/xlink"><style class="text-font-style fontImports" data-font-family="Roboto">@import url('https://fonts.googleapis.com/css2?family=Roboto:wght@400;700&amp;display=block');</style><rect id="" x="0" y="0" width="542" height="579.453" style="fill: #ffffff;"></rect><g id="items" style="isolation: isolate"><g id="blend" style="mix-blend-mode: normal"><g id="g-root-tf_qrjq9qh8s7pn-fill" data-item-order="-311825" transform="translate(-9, -9)"><g id="tf_qrjq9qh8s7pn-fill" stroke="none" fill="#ffffff"><g><path d="M 10 10L 550 10L 550 587.45L 10 587.45Z"></path></g></g></g><g id="g-root-0.cu_sy_1lt1aymh8sa30-fill" data-item-order="-98714" transform="translate(97, 240)"><g id="0.cu_sy_1lt1aymh8sa30-fill" stroke="none" fill="url(#gradient-cbcbcb-248399021)"><g><path d="M 362 128.457C 313.667 143.734 243 218.542 243 277L 200.466 277C 201.085 270.85 201.979 261.34 202.644 251.637C 203.768 235.237 204.394 215.077 204.394 209.771L 204.394 200.33L 204.394 195.683C 204.394 195.683 204.335 192.971 204.197 188.896C 203.977 182.371 203.554 172.351 202.848 164.369C 202.442 159.779 202.523 155.063 204.641 150.971C 206.242 147.88 208.611 144.279 211.921 141.023C 223.404 129.728 226.701 120.833 213.154 110.048L 214.817 109L 214.817 91L 225.848 85L 225.848 67L 238.585 61L 238.585 43.5L 258.39 37L 258.39 16L 282 10L 362 10L 362 128.457ZM 185.171 209.771C 185.171 209.771 183.27 235.044 182.846 251.637C 182.596 261.423 182.641 270.884 182.72 277L 190.552 277C 190.631 270.884 190.676 261.423 190.426 251.637C 190.002 235.044 188.101 209.771 188.101 209.771L 185.171 209.771ZM 205.294 115L 205.294 132.056C 216.99 126.469 216.598 120.91 208.048 113.265L 205.294 115ZM 10 128.457C 58.3333 143.734 129 218.542 129 277L 172.806 277C 172.187 270.85 171.293 261.34 170.628 251.637C 169.503 235.237 168.878 215.077 168.878 209.771C 168.878 204.465 168.967 200.377 168.967 195.682L 168.967 192.03L 169.164 185.243C 169.405 178.104 169.941 165.965 171.235 157.216C 168.056 159.034 156.492 165.921 155.808 168.358C 155.484 170.148 157.813 173.338 160.21 176.622C 161.498 178.386 162.806 180.177 163.733 181.793C 164.18 182.283 166.07 183.392 167.516 184.241C 168.126 184.599 168.791 185.011 169.102 185.211L 168.9 192.105C 168.563 192.475 167.024 194.054 165.756 193.56C 165.124 193.314 164.025 192.274 162.993 191.187C 161.685 189.81 160.486 187.359 160.486 187.359C 160.486 187.359 144.977 178.548 145.923 167.077C 146.61 158.761 159.459 149.234 169.297 141.94C 170.541 141.018 171.736 140.131 172.853 139.287C 173.289 138.958 173.741 138.689 174.205 138.451L 166.732 133L 166.732 115L 157.209 109L 157.209 91L 146.13 85L 146.13 67L 133.415 61L 133.415 43.5L 113.61 37L 113.61 16L 90 10L 10 10L 10 128.457Z"></path></g></g></g><g id="g-root-1.cu_sy_1hdu9xah8s7ph-fill" data-item-order="-98710" transform="translate(232.8818359375, 327)"><defs><linearGradient id="gradient-cbcbcb-248399021" x2="0" y2="1"><stop offset="0" stop-color="#d9d9d9"></stop><stop offset="1" stop-color="#bcbcbc"></stop></linearGradient><linearGradient id="gradient-76aaff-163240667" x2="0" y2="1"><stop offset="0" stop-color="#9cc2ff"></stop><stop offset="1" stop-color="#4f92ff"></stop></linearGradient></defs><g id="1.cu_sy_1hdu9xah8s7ph-fill" stroke="none" fill="url(#gradient-76aaff-163240667)"><g><path d="M 46.964131 196.889969L 46.964131 201.998969C 46.964131 201.998969 42.869231 203.270969 38.407531 201.998969C 35.675931 202.724969 32.370231 200.998969 32.370231 200.998969L 32.370231 199.889969C 32.370231 197.262969 34.904931 196.452969 36.672931 196.715969C 36.996531 196.763969 37.319731 196.827969 37.644831 196.863969C 37.563931 196.138969 35.843831 180.648969 34.746031 164.636969C 33.621631 148.236969 32.996131 128.076969 32.996031 122.770969C 32.995831 117.464969 33.085631 113.376969 33.085531 108.682069L 33.085531 105.029769C 33.085531 105.029769 31.306931 107.117869 29.874231 106.560069C 29.242431 106.314069 28.142931 105.273569 27.111031 104.187169C 25.803031 102.810069 24.603731 100.359169 24.603731 100.359169C 24.603731 100.359169 9.095231 91.548269 10.041631 80.076569C 10.727731 71.760569 23.576931 62.233869 33.415031 54.939769C 34.658831 54.017669 35.854431 53.131169 36.971331 52.287369C 37.952531 51.546069 39.008531 51.111269 40.121931 50.652869C 41.226831 50.197969 42.388331 49.719769 43.589331 48.895669C 44.071731 48.530169 44.263231 48.046069 44.444831 47.586769C 44.658231 47.047169 44.858031 46.541869 45.500031 46.303669C 45.821331 46.184369 46.231731 46.092269 46.687831 46.021169L 46.687831 40.889069C 43.737931 39.572869 41.578031 36.817469 40.481531 33.319869C 40.345831 33.545769 40.164431 33.725669 39.938531 33.844469C 38.940031 34.369569 37.450131 33.501169 36.610631 31.904969C 35.771131 30.308669 35.900031 28.588969 36.898431 28.063869C 37.251131 27.878369 37.665031 27.866769 38.089931 27.999569C 37.370131 26.019269 36.971431 23.721069 36.971431 22.097769C 36.971431 17.413269 39.199431 12.467869 45.066431 12.467869C 50.378531 9.285069 55.405031 9.395369 59.019731 11.576569C 57.735431 11.820269 56.807731 12.664669 56.472531 13.614269C 55.973531 15.028969 57.163331 16.558169 58.185031 16.418969C 58.631831 16.358069 58.612931 15.442769 58.872331 14.909269C 59.055631 14.532269 59.409831 14.473469 59.921831 14.473469C 61.215831 16.542869 62.780531 18.404169 64.413831 20.207669C 64.756631 22.825469 64.315831 25.524469 63.419631 27.993469C 65.730931 27.295069 65.569231 30.592269 64.878831 31.904969C 64.276031 33.051169 62.095031 35.073069 61.019931 33.339569C 59.921431 36.828269 57.763631 39.576169 54.818631 40.889669L 54.818631 46.021169C 55.275031 46.092269 55.685531 46.184369 56.006831 46.303669C 57.195331 46.744669 56.868831 48.100969 57.918031 48.895669C 60.329331 50.550369 59.764131 46.948669 64.991631 46.948669C 81.587331 40.503369 81.701331 34.408369 71.260831 25.472769C 70.143931 24.562169 66.794331 23.071669 66.382231 21.625769C 65.824431 21.424969 65.145231 20.834569 64.396731 20.081969C 62.643331 18.318869 60.677131 15.584469 59.951131 14.423369C 59.439031 14.423369 58.998531 14.522569 58.815231 14.899469C 58.555831 15.433069 58.631031 16.306169 58.184231 16.367069C 57.162531 16.506269 56.061531 15.019469 56.560631 13.604869C 56.962731 12.465369 57.925931 11.893369 59.070831 11.607569C 60.408031 11.273769 61.992831 11.330669 63.219731 11.330869C 65.253331 11.331269 66.756631 16.471669 69.181531 17.648369C 70.256931 17.955069 71.321931 18.655869 72.326831 19.422369C 72.743031 19.739869 73.165931 20.062469 73.606231 20.361869C 91.304031 32.394769 88.461031 41.803969 76.039531 54.022569C 72.729531 57.278469 70.359931 60.879569 68.759531 63.970669C 66.641031 68.062769 66.560031 72.778869 66.966231 77.368969C 67.672631 85.351269 68.095131 95.371369 68.315631 101.895869C 68.453431 105.970769 68.512331 108.682669 68.512331 108.682669L 68.512331 113.329969L 68.512331 122.770969C 68.512131 128.076969 67.886631 148.236969 66.762331 164.636969C 65.669131 180.582969 63.958631 196.010969 63.864631 196.853969C 64.246531 196.805969 64.626031 196.719969 65.007331 196.667969C 66.737231 196.430969 69.191431 197.331969 69.191431 199.889969L 69.191431 200.998969C 69.191431 200.998969 66.088231 202.633969 63.356631 201.998969C 58.986031 203.452969 54.544231 201.998969 54.544231 201.998969L 54.544231 196.889969C 54.544231 196.889969 54.968531 181.230969 54.544231 164.636969C 54.119831 148.043969 52.219131 122.770969 52.219131 122.770969L 49.289231 122.770969C 49.289231 122.770969 47.388531 148.043969 46.964131 164.636969C 46.539831 181.230969 46.964131 196.889969 46.964131 196.889969ZM 33.282131 98.242869C 33.523431 91.103669 34.059231 78.964869 35.352731 70.215569C 32.173931 72.034269 20.609831 78.921269 19.926131 81.357569C 19.602431 83.148169 21.931331 86.338269 24.328631 89.621869C 25.616531 91.386069 26.924131 93.177169 27.850831 94.792869C 28.298031 95.283269 30.187731 96.392269 31.633931 97.241169C 32.403831 97.692969 33.048031 98.071069 33.282131 98.242869Z"></path></g></g></g><g id="g-root-tx_aws_1hdu9xah8s7pi-fill" data-item-order="0" transform="translate(15, 39)"><g id="tx_aws_1hdu9xah8s7pi-fill" stroke="none" fill="#484848"><g><text style="font: bold 20px Roboto, sans-serif; white-space: pre;" font-weight="bold" font-size="20px" font-family="Roboto, sans-serif"><tspan x="14.61" y="33.5" dominant-baseline="ideographic">AWSでどのネットワーキングサービスを使用するか？</tspan></text></g></g></g><g id="g-root-tx_amazonvp_zmk9fih8sa2q-fill" data-item-order="0" transform="translate(87, 75)"><g id="tx_amazonvp_zmk9fih8sa2q-fill" stroke="none" fill="#4e88e7"><g><text style="font: bold 20px Roboto, sans-serif; white-space: pre;" font-weight="bold" font-size="20px" font-family="Roboto, sans-serif"><tspan x="17.14" y="33.5" dominant-baseline="ideographic">Amazon VPC</tspan></text></g></g></g><g id="g-root-tx_amazonro_142drjyh8s9ag-fill" data-item-order="0" transform="translate(309, 75)"><g id="tx_amazonro_142drjyh8s9ag-fill" stroke="none" fill="#3cc583"><g><text style="font: bold 20px Roboto, sans-serif; white-space: pre;" font-weight="bold" font-size="20px" font-family="Roboto, sans-serif"><tspan x="14.26" y="33.5" dominant-baseline="ideographic">Amazon Route 53</tspan></text></g></g></g><g id="g-root-tx__zmk9fih8sa2p-fill" data-item-order="0" transform="translate(69, 123)"><g id="tx__zmk9fih8sa2p-fill" stroke="none" fill="#484848"><g><text style="font: 15px Roboto, sans-serif; white-space: pre;" font-size="15px" font-family="Roboto, sans-serif"><tspan x="12.47" y="42.5" dominant-baseline="ideographic">プライベートネットワー</tspan><tspan x="19.22" y="60.5" dominant-baseline="ideographic">クとセキュリティ制御</tspan><tspan x="19" y="78.5" dominant-baseline="ideographic">を提供し、クラウド内</tspan><tspan x="12.32" y="96.5" dominant-baseline="ideographic">で安全なリソース配置を</tspan><tspan x="42.25" y="114.5" dominant-baseline="ideographic">可能にします。</tspan></text></g></g></g><g id="g-root-tx_dns_18i79oeh8s8i7-fill" data-item-order="0" transform="translate(309, 111)"><g id="tx_dns_18i79oeh8s8i7-fill" stroke="none" fill="#484848"><g><text style="font: 15px Roboto, sans-serif; white-space: pre;" font-size="15px" font-family="Roboto, sans-serif"><tspan x="19.38" y="45.5" dominant-baseline="ideographic">効率的なトラフィック</tspan><tspan x="26.5" y="63.5" dominant-baseline="ideographic">管理と信頼性の高い</tspan><tspan x="26.77" y="81.5" dominant-baseline="ideographic">DNSサービスを提供</tspan><tspan x="19" y="99.5" dominant-baseline="ideographic">し、インターネット上</tspan><tspan x="12.77" y="117.5" dominant-baseline="ideographic">のリソースへのアクセス</tspan><tspan x="34.75" y="135.5" dominant-baseline="ideographic">を最適化します。</tspan></text></g></g></g><g id="g-root-tf_qrjq9qh8s7pn-stroke" data-item-order="-311825" transform="translate(-9, -9)"></g><g id="g-root-0.cu_sy_1lt1aymh8sa30-stroke" data-item-order="-98714" transform="translate(97, 240)"><g id="0.cu_sy_1lt1aymh8sa30-stroke" fill="none" stroke-linecap="round" stroke-linejoin="round" stroke-miterlimit="4" stroke="#484848" stroke-width="2"><g><path d="M 362 128.4572C 313.6667 143.7336 243 218.5419 243 277L 200.4662 277C 201.0853 270.85 201.9789 261.3396 202.6441 251.6374C 203.7685 235.237 204.394 215.0775 204.3941 209.7715L 204.3942 200.3298L 204.3941 195.6827C 204.3941 195.6827 204.3352 192.9708 204.1975 188.8959C 203.977 182.3714 203.5544 172.3513 202.848 164.369C 202.4418 159.779 202.5228 155.0628 204.6414 150.9707C 206.2417 147.8796 208.6113 144.2785 211.9214 141.0226C 223.4039 129.7275 226.7013 120.8332 213.1538 110.0478L 214.8168 109L 214.8168 91L 225.848 85L 225.848 67L 238.5851 61L 238.5851 43.5L 258.3904 37L 258.3904 16L 282 10L 362 10L 362 128.4572ZM 185.171 209.7715C 185.171 209.7715 183.2703 235.0442 182.8459 251.6374C 182.5957 261.4232 182.6406 270.8842 182.7196 277L 190.5524 277C 190.6313 270.8842 190.6763 261.4232 190.426 251.6374C 190.0017 235.0442 188.101 209.7715 188.101 209.7715L 185.171 209.7715ZM 205.2944 115L 205.2944 132.0556C 216.9897 126.4691 216.5981 120.9105 208.0485 113.2647L 205.2944 115ZM 10 128.4572C 58.3333 143.7336 129 218.5419 129 277L 172.8057 277C 172.1867 270.85 171.293 261.3396 170.6279 251.6374C 169.5035 235.237 168.878 215.0775 168.8778 209.7715C 168.8777 204.4654 168.9674 200.3766 168.9673 195.6821L 168.9673 192.0298L 169.1639 185.2429C 169.4052 178.1037 169.941 165.9649 171.2346 157.2156C 168.0557 159.0343 156.4917 165.9213 155.8079 168.3576C 155.4843 170.1482 157.8132 173.3383 160.2104 176.6219C 161.4983 178.3861 162.806 180.1772 163.7326 181.7929C 164.1798 182.2833 166.0695 183.3923 167.5157 184.2411C 168.1256 184.5991 168.7908 185.0115 169.1016 185.2109L 168.9001 192.1053C 168.5633 192.4746 167.0242 194.0538 165.7561 193.5601C 165.1243 193.3141 164.0247 192.2736 162.9929 191.1872C 161.6849 189.8101 160.4856 187.3592 160.4856 187.3592C 160.4856 187.3592 144.9771 178.5483 145.9235 167.0766C 146.6095 158.7606 159.4588 149.2339 169.2969 141.9398C 170.5406 141.0177 171.7363 140.1312 172.8531 139.2874C 173.2895 138.9577 173.7406 138.6887 174.205 138.4512L 166.7317 133L 166.7317 115L 157.2091 109L 157.2091 91L 146.1303 85L 146.1303 67L 133.4149 61L 133.4149 43.5L 113.6096 37L 113.6096 16L 90 10L 10 10L 10 128.4572ZM 204.3941 209.7715C 204.3942 206.2482 204.3942 203.3128 204.3942 200.3298C 204.3941 198.8204 204.3941 197.2988 204.3941 195.6827M 113.6096 16L 33.6096 16M 53.4149 43.5L 133.4149 43.5M 90 10L 10 10M 258.3904 16L 338.3904 16M 318.5851 43.5L 238.5851 43.5M 282 10L 362 10M 113.6096 37L 33.6096 37M 53.4149 61L 133.4149 61M 258.3904 37L 338.3904 37M 318.5851 61L 238.5851 61M 68.5221 67L 146.1303 67M 81.1427 91L 157.2091 91M 92 115L 166.7317 115M 68.5221 85L 146.1303 85M 81.1427 109L 157.2091 109M 92 133L 166.7317 133M 303.4779 67L 225.848 67M 303.4779 85L 225.848 85M 290.8574 91L 214.8168 91M 290.8574 109L 214.8168 109M 129 277L 172.8057 277M 182.7196 277L 190.5524 277M 200.4662 277L 243 277M 129 259L 171.1754 259M 170.6279 251.6374C 170.659 252.0921 170.6907 252.5464 170.7228 253L 126.2459 253M 182.8459 251.6374C 182.8343 252.0924 182.8233 252.5467 182.8129 253L 190.459 253C 190.4486 252.5467 190.4377 252.0924 190.426 251.6374M 182.7079 259L 190.5641 259M 202.0966 259L 243 259M 202.6441 251.6374C 202.6129 252.0921 202.5813 252.5464 202.5491 253L 245.7541 253M 203.5824 235L 245.7541 235M 250 229L 203.8437 229M 189.381 229L 183.891 229M 183.5502 235L 189.7218 235M 126.2459 235L 169.6896 235M 169.4282 229L 122 229M 185.0805 211L 188.1915 211M 122 211L 168.8859 211M 204.3861 211L 250 211M 204.131 187L 255.6111 187M 262.4772 181L 203.8883 181M 262.4772 163L 202.743 163M 116.389 187L 159.8882 187M 109.5228 181L 152.3232 181M 163.2572 181L 169.3235 181M 161.9251 163L 170.5256 163M 109.5228 163L 147.1277 163M 101.4098 157L 151.3749 157M 101.4098 139L 173.2592 139M 270.5902 157L 202.8529 157M 270.5902 139L 213.9117 139M 280 133L 218.8197 133M 209.8818 115L 205.2944 115M 280 115L 218.3189 115M 255.6111 205L 204.3942 205M 116.389 205L 168.8993 205M 10 10L 33.6096 16L 33.6096 37L 53.4149 43.5L 53.4149 61L 68.5221 67L 68.5221 85L 81.1427 91L 81.1427 109L 92 115L 92 133L 101.4098 139L 101.4098 157L 109.5228 163L 109.5228 181L 116.389 187L 116.389 205L 122 211L 122 229L 126.2459 235L 126.2459 253L 129 259L 129 277M 362 10L 338.3904 16L 338.3904 37L 318.5851 43.5L 318.5851 61L 303.4779 67L 303.4779 85L 290.8574 91L 290.8574 109L 280 115L 280 133L 270.5902 139L 270.5902 157L 262.4772 163L 262.4772 181L 255.6111 187L 255.6111 205L 250 211L 250 229L 245.7541 235L 245.7541 253L 243 259L 243 277"></path></g></g></g><g id="g-root-1.cu_sy_1hdu9xah8s7ph-stroke" data-item-order="-98710" transform="translate(232.8818359375, 327)"><g id="1.cu_sy_1hdu9xah8s7ph-stroke" fill="none" stroke-linecap="round" stroke-linejoin="round" stroke-miterlimit="4" stroke="#484848" stroke-width="2"><g><path d="M 46.964131 196.890169L 46.964131 201.999469C 46.964131 201.999469 42.869231 203.270969 38.407531 201.999469C 35.675931 202.724569 32.370231 200.999469 32.370231 200.999469L 32.370231 199.890169C 32.370231 197.263169 34.904931 196.453169 36.672931 196.715569C 36.996531 196.763669 37.319731 196.828069 37.644831 196.863669C 37.563931 196.138969 35.843831 180.649469 34.746031 164.637369C 33.621631 148.236969 32.996131 128.077469 32.996031 122.771369C 32.995831 117.465369 33.085631 113.376569 33.085531 108.682069L 33.085531 105.029769C 33.085531 105.029769 31.306931 107.117869 29.874231 106.560069C 29.242431 106.314069 28.142931 105.273569 27.111031 104.187169C 25.803031 102.810069 24.603731 100.359169 24.603731 100.359169C 24.603731 100.359169 9.095231 91.548269 10.041631 80.076569C 10.727731 71.760569 23.576931 62.233869 33.415031 54.939769C 34.658831 54.017669 35.854431 53.131169 36.971331 52.287369C 37.952531 51.546069 39.008531 51.111269 40.121931 50.652869C 41.226831 50.197969 42.388331 49.719769 43.589331 48.895669C 44.071731 48.530169 44.263231 48.046069 44.444831 47.586769C 44.658231 47.047169 44.858031 46.541869 45.500031 46.303669C 45.821331 46.184369 46.231731 46.092269 46.687831 46.021169L 46.687831 40.889069C 43.737931 39.572869 41.578031 36.817469 40.481531 33.319869C 40.345831 33.545769 40.164431 33.725669 39.938531 33.844469C 38.940031 34.369569 37.450131 33.501169 36.610631 31.904969C 35.771131 30.308669 35.900031 28.588969 36.898431 28.063869C 37.251131 27.878369 37.665031 27.866769 38.089931 27.999569C 37.370131 26.019269 36.971431 23.721069 36.971431 22.097769C 36.971431 17.413269 39.199431 12.467869 45.066431 12.467869C 50.378531 9.285069 55.405031 9.395369 59.019731 11.576569C 57.735431 11.820269 56.807731 12.664669 56.472531 13.614269C 55.973531 15.028969 57.163331 16.558169 58.185031 16.418969C 58.631831 16.358069 58.613031 15.442769 58.872331 14.909269C 59.055631 14.532269 59.409831 14.473469 59.921831 14.473469C 61.215831 16.542869 62.780531 18.404169 64.413831 20.207669C 64.756631 22.825469 64.315831 25.524469 63.419631 27.993469C 65.730931 27.295069 65.569231 30.592269 64.878831 31.904969C 64.276031 33.051169 62.095031 35.073069 61.019931 33.339569C 59.921431 36.828269 57.763631 39.576169 54.818631 40.889669L 54.818631 46.021169C 55.275031 46.092269 55.685531 46.184369 56.006831 46.303669C 57.195331 46.744669 56.868831 48.100969 57.918031 48.895669C 60.329331 50.550369 59.764131 46.948669 64.991631 46.948669C 81.587331 40.503369 81.701331 34.408369 71.260831 25.472769C 70.143931 24.562169 66.794331 23.071669 66.382231 21.625769C 65.824431 21.424969 65.145231 20.834569 64.396731 20.081969C 62.643331 18.318869 60.677131 15.584469 59.951131 14.423369C 59.439031 14.423369 58.998531 14.522569 58.815231 14.899469C 58.555831 15.433069 58.631031 16.306169 58.184231 16.367069C 57.162531 16.506269 56.061531 15.019469 56.560631 13.604869C 56.962731 12.465369 57.925931 11.893369 59.070831 11.607569C 60.408031 11.273769 61.992831 11.330669 63.219731 11.330869C 65.253331 11.331269 66.756631 16.471669 69.181531 17.648369C 70.256931 17.955069 71.321931 18.655869 72.326831 19.422369C 72.743031 19.739869 73.165931 20.062469 73.606231 20.361869C 91.304031 32.394769 88.461031 41.803969 76.039531 54.022569C 72.729531 57.278469 70.359931 60.879569 68.759531 63.970669C 66.641031 68.062769 66.560031 72.778869 66.966231 77.368969C 67.672631 85.351269 68.095131 95.371369 68.315631 101.895869C 68.453431 105.970769 68.512331 108.682669 68.512331 108.682669L 68.512331 113.329769L 68.512331 122.771369C 68.512131 128.077469 67.886631 148.236969 66.762331 164.637369C 65.669131 180.583269 63.958631 196.010969 63.864631 196.853969C 64.246531 196.805669 64.626031 196.720069 65.007331 196.667869C 66.737231 196.430869 69.191431 197.332469 69.191431 199.890169L 69.191431 200.999469C 69.191431 200.999469 66.088231 202.633569 63.356631 201.999469C 58.986031 203.453069 54.544231 201.999469 54.544231 201.999469L 54.544231 196.890169C 54.544231 196.890169 54.968531 181.230669 54.544231 164.637369C 54.119831 148.044169 52.219131 122.771369 52.219131 122.771369L 49.289231 122.771369C 49.289231 122.771369 47.388431 148.044169 46.964131 164.637369C 46.539831 181.230669 46.964131 196.890169 46.964131 196.890169ZM 33.282131 98.242869C 33.523431 91.103669 34.059231 78.964869 35.352731 70.215569C 32.173931 72.034269 20.609831 78.921269 19.926131 81.357569C 19.602531 83.148169 21.931331 86.338269 24.328631 89.621869C 25.616531 91.386069 26.924131 93.177169 27.850831 94.792869C 28.298031 95.283269 30.187731 96.392269 31.633931 97.241169C 32.403831 97.692969 33.048031 98.071069 33.282131 98.242869ZM 68.512331 122.771369C 68.512431 119.248169 68.512431 116.312769 68.512331 113.329769C 68.512331 111.820369 68.512331 110.298769 68.512331 108.682669M 71.260831 25.472769C 71.684731 25.818369 70.866631 25.135369 71.260831 25.472769ZM 46.964435 196.889991L 37.648035 196.889991M 41.142835 122.771191C 46.154035 124.041991 49.289435 122.771191 49.289435 122.771191M 54.544435 196.889991L 63.860835 196.889991M 60.366035 122.771191C 55.354835 124.041991 52.219435 122.771191 52.219435 122.771191M 32.996235 108.682491L 68.512535 108.682491L 33.085735 108.681891M 43.589635 48.895391L 57.918335 48.895391M 54.818935 46.020991C 53.498635 45.815291 51.794435 45.785891 50.753335 45.785891C 49.712235 45.785891 48.008235 45.815291 46.688135 46.020991M 33.282435 98.242591C 33.144635 102.317891 33.085735 105.029591 33.085735 105.029591M 27.851035 94.792691L 24.604035 100.358991M 35.353035 70.215391L 35.757235 67.481491M 66.412935 21.610791C 67.139535 20.629891 69.181835 17.648191 69.181835 17.648191M 63.419935 27.993191C 62.908635 29.401591 62.235135 30.649691 61.427135 31.380891C 60.402435 34.571791 58.993635 37.250091 57.476735 37.845591C 55.488035 38.626191 53.195135 39.045791 50.753935 39.045791C 48.312735 39.045791 46.019835 38.626191 44.031135 37.845591C 42.514235 37.250091 41.199935 34.595191 40.080735 31.380891C 39.274035 30.650791 38.601235 29.405191 38.090235 27.999391M 64.397135 20.081791C 62.643735 18.318691 60.677135 15.584491 59.951135 14.423391C 59.439135 14.423391 58.998535 14.522591 58.815235 14.899491C 58.555835 15.432991 58.631035 16.306091 58.184235 16.366991C 57.162535 16.506291 56.061535 15.019491 56.560635 13.604791C 56.962735 12.465391 57.926235 11.893191 59.071035 11.607391"></path></g></g></g><g id="g-root-tx_aws_1hdu9xah8s7pi-stroke" data-item-order="0" transform="translate(15, 39)"></g><g id="g-root-tx_amazonvp_zmk9fih8sa2q-stroke" data-item-order="0" transform="translate(87, 75)"></g><g id="g-root-tx_amazonro_142drjyh8s9ag-stroke" data-item-order="0" transform="translate(309, 75)"></g><g id="g-root-tx__zmk9fih8sa2p-stroke" data-item-order="0" transform="translate(69, 123)"></g><g id="g-root-tx_dns_18i79oeh8s8i7-stroke" data-item-order="0" transform="translate(309, 111)"></g></g></g></svg>